<svg id="Layer_1" data-name="Layer 1" xmlns="http://www.w3.org/2000/svg" viewBox="0 0 1032.43 596.4"><defs><style>.cls-1,.cls-2{fill:#7c848a;}.cls-1{fill-rule:evenodd;}.cls-3{fill:#ee3b29;}</style></defs><title>citi</title><path class="cls-1" d="M365.15,782.59l-2,2.07C336.82,811,306.44,825.2,274.07,825.2c-66.8,0-115.39-48.7-115.39-117.65,0-71,48.59-119.67,115.39-119.67,32.37,0,62.75,14.18,89.06,40.56l2,2.06,42.5-50.74v-2c-36.42-42.58-78.95-62.89-131.54-62.89s-101.23,18.26-135.64,50.72c-38.45,34.48-56.68,83.17-56.68,142,0,56.81,18.23,105.48,56.68,140,34.41,32.43,83,50.68,135.64,50.68s95.12-20.26,131.54-62.88v-2Z" transform="translate(-83.79 -301.8)"/><rect class="cls-2" x="370.42" y="219.15" width="74.9" height="369.17"/><path class="cls-1" d="M812.48,811c-18.21,12.14-38.48,18.25-54.65,18.25-24.3,0-36.45-12.18-36.45-42.57V591.94h76.94V521H721.38V405.34L648.5,445.93v75H583.76v71H648.5V800.88c0,56.77,32.41,95.3,83,95.3,34.38,2,54.65-8.1,66.8-16.23h2v-2l18.21-71Z" transform="translate(-83.79 -301.8)"/><rect class="cls-2" x="783.35" y="219.15" width="76.91" height="369.17"/><path class="cls-3" d="M698.59,377.58a306.19,306.19,0,0,1,214.17,87.17h98.94C942.28,366.29,828.07,301.8,698.59,301.8s-243.67,64.49-313.1,163h98.93c55.42-53.88,130.87-87.17,214.17-87.17" transform="translate(-83.79 -301.8)"/><path class="cls-2" d="M1030.79,446.14c0-24.21,18.69-43.06,42.87-43.06s42.55,18.52,42.55,42.63-18.83,43.09-42.87,43.09-42.55-18.51-42.55-42.66m76.86,0c0-20.09-14.62-35.24-34.31-35.24s-34,14.82-34,34.81S1054,481,1073.66,481s34-14.83,34-34.83m-51-24.44h18.05c11.27,0,18,4.93,18,15.19,0,7.37-3.47,11.39-8.57,13.52l9.12,17.85h-11.68l-8.24-16.41h-5.69v16.41h-11ZM1074,443.8c5.25,0,7.82-1.89,7.82-6.23,0-4.14-2.57-6-7.82-6h-6.34V443.8Z" transform="translate(-83.79 -301.8)"/></svg>