<svg id="Layer_1" data-name="Layer 1" xmlns="http://www.w3.org/2000/svg" viewBox="0 0 226.77 294.8"><defs><style>.cls-1{fill:#fff;}.cls-1,.cls-2,.cls-3,.cls-4,.cls-5{fill-rule:evenodd;}.cls-2{fill:#231f20;}.cls-3{fill:#fff200;}.cls-4{fill:#ed1c24;}.cls-5{fill:#00a651;}</style></defs><title>ferrari</title><polygon class="cls-1" points="46.06 9.57 49.44 9.1 56.19 8.15 59.57 7.67 62.95 7.2 66.32 6.72 69.7 6.25 73.08 5.78 76.45 5.3 86.58 3.88 89.96 3.4 93.34 2.93 96.72 2.45 100.09 1.98 103.47 1.5 110.22 0.55 114.16 0 118.09 0.55 124.81 1.5 128.16 1.98 131.52 2.45 134.88 2.93 138.24 3.4 141.6 3.88 151.68 5.3 155.04 5.78 158.4 6.25 161.76 6.72 165.12 7.2 168.48 7.67 171.84 8.15 178.56 9.1 181.92 9.57 185.28 10.05 188.64 10.52 192 11 195.36 11.47 198.72 11.95 202.08 12.42 205.44 12.9 208.79 13.37 212.16 13.85 215.51 14.32 218.87 14.79 225.7 15.76 225.7 25.9 225.73 25.9 225.73 43.14 225.7 43.14 225.7 47.83 225.96 47.92 226.66 64.94 226.77 78.74 226.44 91.96 225.67 104.61 224.49 116.7 222.92 128.27 220.98 139.31 218.68 149.86 216.06 159.91 213.12 169.5 209.89 178.63 206.39 187.32 202.65 195.58 198.67 203.43 194.5 210.89 190.13 217.97 185.6 224.69 180.94 231.06 176.15 237.11 171.27 242.83 166.31 248.26 161.3 253.41 156.25 258.29 151.2 262.93 146.16 267.33 141.15 271.52 136.19 275.52 131.32 279.33 126.54 282.98 121.88 286.48 117.36 289.84 110.72 294.8 101.63 288.73 95.03 284.02 88.59 279.13 82.34 274.04 76.27 268.77 70.38 263.3 64.69 257.64 59.2 251.78 53.91 245.73 48.84 239.48 43.98 233.03 39.35 226.39 34.94 219.54 30.77 212.5 26.84 205.25 23.16 197.79 19.72 190.14 16.54 182.28 13.62 174.22 10.97 165.95 8.6 157.47 6.5 148.79 4.68 139.9 3.15 130.8 1.91 121.49 0.97 111.97 0.34 102.24 0.01 92.29 0 82.13 0.3 71.76 0.93 61.17 2.06 48.39 2.06 34.87 2.08 34.86 2.08 33.98 2.06 33.99 2.06 15.76 8.91 14.79 12.29 14.32 15.66 13.84 19.04 13.37 22.42 12.9 25.8 12.42 29.17 11.95 32.55 11.47 35.93 11 39.3 10.52 42.68 10.05 46.06 9.57 46.06 9.57"/><path class="cls-2" d="M198.11,300.3c71.91-30.93,143.81-27.51,215.71,0,8.78,155.36-65.64,204.64-111.22,238.87C230.72,492.65,186.31,415.43,198.11,300.3Z" transform="translate(-192 -249)"/><path class="cls-3" d="M203.5,303.91c5.65-2.36,11.35-4.5,17.12-6.57l13.13-4.14,13.12-3.38L260,287.18l13.12-1.92L286.23,284l13.12-.52,13.12.16,13.13.82L338.74,286l13.15,2.11,13.16,2.73,13.17,3.33,13.18,3.94c5.67,1.87,11.3,3.8,16.89,5.89l.45,11,.11,13.45-.32,12.87-.74,12.28-1.14,11.73-1.51,11.18-1.86,10.66-2.19,10.15-2.51,9.67-2.8,9.19-3.07,8.74-3.32,8.31-3.55,7.89-3.76,7.49-4,7.11L374,462.41l-4.28,6.4-4.42,6.08-4.53,5.76-4.64,5.47-4.71,5.2-4.77,4.93L337,505.41l-9.66,8.32q-7,5.7-14.18,11.2l-10.68,8-10.09-7.07-6.14-4.71-6-4.89-5.79-5.06L268.87,506l-5.42-5.42L258.23,495l-5-5.8-4.82-6L243.77,477l-4.4-6.36-4.18-6.54-4-6.74-3.73-6.93L224,443.32,220.73,436l-3-7.52-2.78-7.73-2.52-7.93-2.27-8.13-2-8.35-1.74-8.55L204.94,379l-1.18-9-.9-9.19-.61-9.41-.32-9.63V332l.29-10.07.61-10.29.68-7.71ZM325.81,483.78c.74-2-1.81-1.46-2.2-2.3s-.23-1.8,1.1-3c3-1.76,6.22-.77,9.42-.34.79.28.9,1.48.34,3.6l-2.29,6.85c-1.14.43-2.86.6-4,1-1,.57-1.14,1-.51,1.37.9.23,1.89-.23,2.8,0-3.56,16.73-22.39,10.25-16,2.52,6,3.63,6.27-4.8,2.28-4.06-5,.93-5.15,5.27-5.18,6.76-.14,7.57,18.26,11.78,22.83-5.39,1.45-.75,2.55-.55,4-1.29a.7.7,0,0,0,.09-1.25c-.88,0-2.44.21-3.31.18.62-2.14,1.41-5.32,2-7.46s.43-1.69,2.77-1.91c4.4-.4,9.22,1.3,13.63-3-12.58,3.58-27.26-6.2-33.51,3.64a3.33,3.33,0,0,0-.45,3.22c.71,2.23,4.18,2.75,6.2.85Zm-55.64,10.83c-1.45,5.67,7.41,8.36,11,6.42s5.63-6.59,1.62-9.83c-6.78-2.84-19.06-7.94-10.65-16.44,2.9-.75,5.42-1.79,10.35,1.62l2.12-.65c1.64,2.89,1.7,3.95,1.7,7.3l-2.55-3.22-3.61-2.15c-4.23-1.66-7.31-1-4.68,4.08,7.2,4.7,15.6,6.41,13.78,15.44-.33,3.59-4.72,6.48-7,6.77-10.57.14-15-1.68-15.32-10a3.71,3.71,0,0,1,3.83-3.86c3.65-.46,4,3,1.91,5.14l-2.55-.64Zm2.62-180.95c-.41-3.55-.29-4.54,4.64-6.72,3.86-1.77,7.16-1.87,11-3,1.95-2.34,2.79-2.23,5.28-2.86.07-.52.13-1.05.2-1.57a15.66,15.66,0,0,1-4.07-3.71c.06-.59.13-1.17.19-1.76l1.55.2c-.19-.59-.39-1.18-.58-1.76l5.62.39v-4.11c.17-.83.56-1,1.16-.58l3.49,4.3c.13-1.57.41-2.81.54-4.38,0-.83.49-1,1.36-.58l3.33,6.33c2.54-1,6.07-.56,9.88.19l-.78,1.37,4.26,1.37c-.06.39-.13.78-.19,1.17a30.73,30.73,0,0,1,10.46,2.74l-6.78,1.95c-1.26.59-1.26,1.17,0,1.76a26.19,26.19,0,0,1,13,8.8l-.39,1.17c-5-3.81-9.45-5.9-13.17-5.47-.37.65-.11,1.3.77,2,4.72,3.61,9.43,5.84,14.14,6.06a18.32,18.32,0,0,1-11.62-1c-.22.78-.67,1.57,0,2.35,2.77,1.72,4.75,3.67,10.66,4.49,0,.4-1.26.47-1.26.86-3.88.22-6.49-1.1-10.37-3a1.63,1.63,0,0,0-1,1.76c2.79,4.16,5.45,8.45,9.11,11.73l-1.16.39c-4.84-3.21-6.83-5.69-9.69-8.4-.33.78-1,1.56,0,2.34A78.72,78.72,0,0,1,333,340.56c-.18.83-.57,1-1.17.59-4-4-4-3.76-9.68-4.5.18,4.45,7.42,4.27,11.73,11.41-.32.13-.17.58-.5.71-4-2.1-3.73-1.94-8.13-1l5,3.52v1.18a17.33,17.33,0,0,0-7.75-1.18l6.78,5.48c.8.6.54,1-.77,1.17l-7.36-2.54c2.58,2.41,4.69,4.18,7.28,6.6.62.94.31,1.46-.32,1.56-4.76-2.91-5.36-4.15-10.64-2.88v2.15c4.92,0,4.39-.61,7.36,3.32a9,9,0,0,0-5-1.17c1.06,2.08,1.55,4.17,4.85,6.25,4.95,3.79-6.54-.8-8.53-3.52a24,24,0,0,0-6.58-3.32,9.25,9.25,0,0,0,0,5.86q3.57,6,7.16,11.93c2,2.15,3.85,4.62,5.85,6.77,2.65,1.95,4.19,4.06,6.84,6,6.68,5.68,14.3,9.47,14.24,19.46,16.21,4.63,18.78-23.46,16.66-26.22-7.55-17.17-2.34-30.23,8.33-37.7v1.17c-5,5.68-6,7.25-8.14,14.47.31,1.3.29,3.05,1.94,2.54a35.88,35.88,0,0,1,7.75-7c1.31.23,1.56.88.77,2-3.94,6.05-4.82,7.28-5.61,14.46l1.55.78q2.32-2.62,4.64-5.27c1.18.5,1.31,1.22.39,2.15-4.64,3.51.12,20.56-1,26.78-1.5,8.6-6.4,11.34-13.17,16.61,1.58,6.57,1.21,7.87-.39,14.47-.52-4.48.39-7.3-3.29-9.78-.25,9-6.62,14.4-5.42,13.69,1.8-5.34,3.31-6.57,1.16-11.73-.89,2.7-1.91,5.35-2.91,8,.34-2.66.39-12.8-.19-11.92l-1.74.19c-3.55,11.71-6.82,14.75-16.47,21.7l-4.07,2.74c-.92,4-.25,5,1,9l2.13,4.69c0,3.64.18,3.5-2.13,6.25l-5.62,2.15-8.71,8.61c-.53,4-.78,3-4.65,4.1.25,1,.51,2.09.77,3.13-4.56,3.5-5.79,3.91-11.43,5.08-.32-.52-.64-1-1-1.56l2.52-5.28c1.93-2.41,3.46-6.06,6.59-6.06.06-.52.13-1,.19-1.56,1.23-.92,2.77-1.83,4-2.74,3.23-3.13,6.14-6.26,9.37-9.38a5.28,5.28,0,0,0,.58-3.52l-1.74-3.13c-.65-1.56-1.3-3.13-1.94-4.69l-2.33.39c-1.14,3.45-.2,3.66-3.87,3.13l-9.49-4.5-8.14-1.17c-3.1-.36-4.56-.28-7.17-2l-4.64.2-1,1.17c-5.45.21-4.16.37-8.48-3.52-.71-1.69-2-3.38-2.76-5.08a31.58,31.58,0,0,1,10.66-.39l2.13,1.56c4.09.32,6.57,0,10.07,2.15l10.07,2.35,4.46-.39,1.16-2.54c-.26-1-.52-2.09-.77-3.13a12.64,12.64,0,0,1-5.78-9.84s-3-3.14-3.59-5.68c-1.22-6-4.67-10.94,1-12,.88-1.58-4.54-4.59-6.19-5.86-6.87-5.67-14-10-14.92-19.36l-4.26-.19c-4.53.42-4.28-.35-7.36-3.32a22.66,22.66,0,0,1-9.69-6.45s-2.52-1.78-3.87-1.78c-1.89,0,.52,11.85-.2,13.31,2,2,2.18,1.62,1.94,4.49,1.85,2.24,2.84,2.79,3.1,5.67l.78,2.15c3.71.75,2.53-.11,3.14,3.33a17.45,17.45,0,0,1,0,4.88l-.78,2.93a11,11,0,0,1-3.68-2c-2.62-2.64-2.83-1.89-2.32-5.47-1.6-.69-1.71-1.09-2.72-2.54,0,0,.58-.59-.77-1.57-2.23-1.6-1.75-1.24-1.75-4.1v-2.54c0-1,.78-.79-.19-2.94s-.58-.58-1.74-3.51c-.61-1.26-.07-3.53-.2-3.91-1.26-3.5-1.2-4.66-1.55-4.5-.12,1.17-.25,2.35-.38,3.52v1.56a54.32,54.32,0,0,1-3.3,6.06c-2.28.66-3.68,1-3.68-2.54,0-3.73-.06-4.17,1.55-7.43.2-.84.39-1.69.58-2.54V375c0-4,.63-8.51,3.3-11.73,1.64-2,3.43-8.33,4.07-10.75.32-3.31-.38-3.57,2.51-4.89.4-2,5-2.19,6.4-1.37a22.19,22.19,0,0,1,2.71,2.35c3.64,2.25,7.32,4.15,10.46,7.82h4.26l3.68-2.74c.14-1.62,5.27-4.74,6.47-4,2-4.77,3.82-6.92,7.62-10.75-.76-.21,6.75-13,8-13,.27-1.35,1.22-5.44-.54-5.86-2.28.69-8.63-.26-9.72-2.15-.71,0-1,.32-1.66.32l-2.13.58c-1.62,1.36-2,.51-3.8,1.13-1.16,0-2.91.4-3.31-.53-.69-1.59.8-1.39,1.79-1.5l1.36-.39c2.1-.71.4-.82-1-1.57l-1.55.39h-2.52c-1.58-1-.94-.77-1.15-2.66Zm4.07-3.28A1.38,1.38,0,0,1,278,312a1.66,1.66,0,0,1-1.43,1.63c-.72,0-1.24-.73-1.17-1.63a1.66,1.66,0,0,1,1.43-1.64Zm-31.73,57.1a21.39,21.39,0,0,1,8.66-.16c1.7.39,5.27,1.21,7.09.95-1.49-2-2.55-4.24-4.1-6.19a52.82,52.82,0,0,1-3.93-4.29c-1.63-.94-2-1.1-3.78-.48-1.45,1.17-1.58,2.07-2.21,3.81a10.07,10.07,0,0,1-1.73,6.36Zm38.21-16.05c-.69.64-.63,1.27.19,1.9,4.09-.39,5.1-1.18,8.84.38,1.57.13,3.59-1.06,2.07-2.28-3.1-2.48-7.4-.64-11.1,0Zm8.09-7c-.29,6.79,10.49-12,11.11-12.73q1.32-4.37-1.13-3.42l-10,16.15Zm5.84-39.89a1.58,1.58,0,0,1,1.69,1.42c0,.79-.19,1.43-1.13,1.43a2.29,2.29,0,0,1-1.88-2c0-.78.39-.85,1.32-.85ZM251.89,375c4,1.65,6.07,4,8.67,5.32,2.89,1.42,4.33.13,3-1.52-4.85-2.49-9.26-6-11.68-3.8Zm-6.77-6.84c1.45.84,1.46,1.06,1.13,3.23.14,2.53-.06,6.3-2.07,1.52-.26-.51-.51-1-.76-1.52a3.11,3.11,0,0,1,1.7-3.23Zm7.72-20.24c-.26,1.67-.43,1.75-2.2,2.14-1.93,1-4.91,2-1.75-1.47l1-1.22a2.25,2.25,0,0,1,3,.55Zm8,15.39c-2.07,0-2.2-.23-3-2.38-1.51-2.23-3.28-5.76,1.51-2.42l1.65,1c.91,1.11.85,2.38-.18,3.78Zm3.54,7.23c-.61-3,0-3.44,2.8-5.26,2.69-2.9,3.37-6.21,2.6-.88-.31.91-.61,1.81-.91,2.71-1.29,1.69-2.16,4.48-4.49,3.43Zm50.37,14c-.94,6.78-10.39-11.8-9.23-12.54-.87-2.91.25-3.67,1.89-3,1.57,5.38,1.75,10.2,7.34,15.58Zm-15.23,24c-3.18,1.36-15.69-11.43-16.57-12.08-1.74-3-1.62-4.36.35-4.09,5.09,5.48,11.13,12.32,16.22,16.17Zm3.42,13.1c1.88,1.14,2.57.9,2.07-.75-2.8-5-4.44-5.25-6.95-8.06-1.63-.3-2.07-.45-1.33.45,2.24,3.51,4.6,5.5,6.21,8.36Zm11.69-4.78a15.79,15.79,0,0,1-3.7,10.31l-2.51-.45c-1.28.49-1.58,1-.89,1.49l1.48,1.34c-1.34,4.39-2.28,8.77-.44,13.15,1.87.89,2.56.4,2.07-1.5-3.11-4.9-.65-8.07,1.48-11.35.85,2.69-1.71,7.42.29,8.07,2-3.42,5.88-9.43.89-9.56a23.81,23.81,0,0,0,4-10.9c.12-3.77-1.68-3.74-2.67-.6Zm.17-18.75c2.23,1.53,1.83,2-.14,4-1.27,2.65-.21,4.81-2.25,1.44-.16-.63-.33-1.26-.49-1.9.46-1.43-.12-3.37,2.88-3.59Zm26.53,21.14c-1.57,1.63-1.48,2.36-1,5.56-.05,3.87-1.17,6.61.78,2.42.25-.83.5-1.65.76-2.48.14-2.06.95-4.58-.53-5.5Zm15.41-3.91c14.78-9.33,5.69-18.49,9.8-29.46-6.56,8.15,1.81,19.92-11.95,27.87-3.92,1.72-2.16,3.23,2.15,1.59Zm-36.29,48.74c-.58,2.2-1.24,2.5-4.2,3.74-3.26,2-5,4.41-2.46.57l1.72-1.94c1.67-1.18,3.39-3.18,4.94-2.37Z" transform="translate(-192 -249)"/><polygon class="cls-1" points="6.19 29.93 114.47 13.7 221.62 29.93 221.62 39.21 114.47 21.81 6.19 39.21 6.19 29.93 6.19 29.93"/><path class="cls-4" d="M413.6,287.71v11.76c-85.7-27.73-133.43-29.33-215.43,0V287.71l108.28-16.59L413.6,287.71Z" transform="translate(-192 -249)"/><path class="cls-5" d="M198.17,268.73l108-15.36L413.6,268.73v10.15L306.45,263,198.17,278.89V268.73Z" transform="translate(-192 -249)"/></svg>