<svg id="Layer_1" data-name="Layer 1" xmlns="http://www.w3.org/2000/svg" viewBox="0 0 750 638.29"><defs><style>.cls-1,.cls-5{fill:#16267e;}.cls-1,.cls-2{fill-rule:evenodd;}.cls-2,.cls-4{fill:#7c7d7f;}.cls-3{fill:#16267d;}.cls-6{fill:#fff;}.cls-7{fill:#c52241;}</style></defs><title>grey-goose</title><path class="cls-1" d="M235.32,662.35H219.19a26.8,26.8,0,0,0,1.43-5.07,17.64,17.64,0,0,0,.26-3.38V594.71a17.65,17.65,0,0,0-.67-4c-.51-1.2-1.36-4.57-1.36-4.57h19.26s25.17.51,25.68,21.28c.39,16.25-14.71,21-14.71,21A98.49,98.49,0,0,0,258,641.55c9.81,11.83,17.59,20.63,17.59,20.63H262.94s-8.61-8.62-15.89-17.09c-7.62-8.89-13.84-17.9-13.84-17.9v25.68a20.92,20.92,0,0,0,.5,4.82c.51,1.36,1.61,4.66,1.61,4.66Zm-2.11-36.78V592.88s18.49.58,18.49,15c0,16.5-18.49,17.67-18.49,17.67ZM783.66,601V588.81A35.33,35.33,0,0,0,768,584.93c-7.62,0-23.06,4.72-23.57,21.29-.47,14.87,8.6,17.08,16.22,22.32,6,4.12,13.68,7.44,13.68,14.52,0,5.43-3.64,11.51-13.61,10.5-5.3-.54-13-8.87-13-8.87v15.78s10,3.41,17.82,2.72c8.39-.71,18.53-5.66,20.61-13.51,2.55-9.56,1.19-19.63-7.43-25.54-4.5-3.08-14.52-8.11-16.07-9.63s-6.23-3.56-5.56-11.33c.28-3.07,3.38-8.62,10.64-8.8a22.12,22.12,0,0,1,15.89,6.6ZM647.5,631c-3.78-21.41,11.11-41.92,33.26-45.82s43.13,10.28,46.9,31.68-11.12,41.92-33.25,45.83S651.28,652.39,647.5,631Zm12.24-2c-3-17,6.94-32.9,22.16-35.58s30,8.89,33,25.85-6.95,32.9-22.18,35.6-30-8.9-33-25.87Zm-110.27,1.65c-3.77-21.41,11.12-41.94,33.25-45.83s43.14,10.29,46.92,31.68-11.12,41.93-33.27,45.82-43.13-10.27-46.9-31.67Zm12.24-2c-3-17,6.93-32.9,22.17-35.58s30,8.88,33,25.86-6.94,32.9-22.16,35.59-30-8.88-33-25.87ZM354.06,585.94H371.8s-.47,3.51.17,4.9c1,2.19,13.93,24.84,13.93,24.84l13.19-23.93a6.71,6.71,0,0,0,.66-3,18.26,18.26,0,0,0-.16-2.77h15.8L392.07,627l.09,29.08a27.52,27.52,0,0,0,.51,3.13,30.93,30.93,0,0,0,1,3H378.3s.42-1.36.93-2.88a9.2,9.2,0,0,0,.34-3.3V627.19L361,594.56a16,16,0,0,0-3.22-4.57,28.23,28.23,0,0,1-3.71-4Zm455.28,76.24a31.77,31.77,0,0,0,1.87-5.16,23.21,23.21,0,0,0,.57-5.58l-.07-54.18a22.27,22.27,0,0,0-1.1-6.52c-1.11-2.93-2.12-5-2.12-5h42.59l-6.44,12s-3.89-2.1-5.9-2.95a23.81,23.81,0,0,0-8.28-1.53h-6.08v26.29h23.73l-6.67,11.16s-1.85-.73-4.39-1.87a21.23,21.23,0,0,0-7.85-1.52h-4.82v27s13,.33,17.66-.94a142.07,142.07,0,0,0,13.68-4.72L850,662.18ZM523.16,600.55V587.81s-59.3-18.44-64,37.68c-2.18,26,22.81,38,40.55,37.7,18.58-.36,29.39-5.25,29.39-5.25-1-1.94-1.26-6.57-1.26-6.57l-.17-17.51s.59-4.47.93-5.83a33.37,33.37,0,0,1,1.52-4.06H510.39a46,46,0,0,1,3,4.23,19.76,19.76,0,0,1,2,7.28l.68,15.37a32.78,32.78,0,0,1-14.71,3c-10.63-.52-29.23-8.29-29.73-27-.33-12.36,2.86-28.4,21.45-32.47,11.59-2.51,23.46,2.91,30.09,6.17ZM293.33,662.18a31.2,31.2,0,0,0,1.86-5.16,23.22,23.22,0,0,0,.59-5.58l-.09-54.18a21.9,21.9,0,0,0-1.1-6.52c-1.09-2.93-2.11-5-2.11-5h42.58l-6.42,12s-3.89-2.1-5.92-2.95a23.77,23.77,0,0,0-8.27-1.53h-6.08v26.29H332.1l-6.67,11.16s-1.84-.73-4.4-1.87a21.26,21.26,0,0,0-7.86-1.52h-4.8v27s12.95.33,17.66-.94a142.07,142.07,0,0,0,13.68-4.72L334,662.18ZM188.66,600.55V587.81s-59.29-18.44-64,37.68c-2.18,26,22.81,38,40.55,37.7,18.58-.36,29.41-5.25,29.41-5.25-1.07-1.94-1.28-6.57-1.28-6.57l-.17-17.51s.59-4.47.94-5.83A35.21,35.21,0,0,1,195.6,624H175.92a49.09,49.09,0,0,1,2.94,4.23,20.1,20.1,0,0,1,2,7.28l.68,15.37a32.81,32.81,0,0,1-14.7,3c-10.64-.52-29.23-8.29-29.73-27-.33-12.36,2.87-28.4,21.45-32.47,11.57-2.51,23.47,2.91,30.07,6.17Z" transform="translate(-124.5 -180.12)"/><polygon class="cls-2" points="169.25 485.01 171.28 487.12 213.68 487.12 222.31 466.92 218.5 468.44 211.49 485.01 169.25 485.01 169.25 485.01"/><path class="cls-2" d="M311.24,651.44V630.22s1.65,0,3.34,0a21.85,21.85,0,0,1,5.06,1.12c1.55.68,7.05,3,7.05,3l8.58-14.49h3.8l-9.92,16.62-7.28-3a15.9,15.9,0,0,0-5.65-1h-2.7v18.91Z" transform="translate(-124.5 -180.12)"/><path class="cls-2" d="M311.24,616.66V596.17h3a33.15,33.15,0,0,1,3.93.29,22.25,22.25,0,0,1,4.18,1.34c1.14.56,7.53,3.9,7.53,3.9l8.31-15.59,2.16,2.66-8,15-7.42-3.69a9.14,9.14,0,0,0-2.84-1,26.64,26.64,0,0,0-4.51-.54c-1.7-.08-4.06,0-4.06,0v18.21Z" transform="translate(-124.5 -180.12)"/><polygon class="cls-2" points="685.44 485.01 687.46 487.12 729.88 487.12 738.49 466.92 734.68 468.44 727.67 485.01 685.44 485.01 685.44 485.01"/><path class="cls-2" d="M827.43,651.44V630.22s1.64,0,3.33,0a21.74,21.74,0,0,1,5.06,1.12c1.54.68,7.06,3,7.06,3l8.56-14.49h3.82l-9.93,16.62-7.27-3a16,16,0,0,0-5.66-1h-2.7v18.91Z" transform="translate(-124.5 -180.12)"/><path class="cls-2" d="M827.43,616.66V596.17h3a33,33,0,0,1,3.91.29,23.19,23.19,0,0,1,4.2,1.34c1.13.56,7.51,3.9,7.51,3.9l8.33-15.59,2.14,2.66-8,15-7.43-3.69a9,9,0,0,0-2.82-1,27,27,0,0,0-4.52-.54c-1.69-.08-4.06,0-4.06,0v18.21Z" transform="translate(-124.5 -180.12)"/><path class="cls-2" d="M238.36,621.44l-2.24.62V596.17a40.4,40.4,0,0,1,4.56,1.25,16.36,16.36,0,0,1,5.28,3.23s-3-1.23-4.73-1.78a18.93,18.93,0,0,0-2.87-.59v23.16Z" transform="translate(-124.5 -180.12)"/><path class="cls-2" d="M253.27,629.71S261,625.83,264,619.49c6.54-13.85-.63-23.92-.63-23.92s9.79,9.51,3.34,25.32c-3,7.3-11.71,11.45-11.71,11.45l-1.73-2.63Z" transform="translate(-124.5 -180.12)"/><path class="cls-2" d="M218.34,667.5l.85-2.2h20.09l-1.94-5.07a17.81,17.81,0,0,1-.92-3.29c-.17-1.36-.33-3.22-.33-3.22l.07-17.49,2.11,2.62v17.07a9.27,9.27,0,0,0,.34,3.3c.51,1.35,2.79,8.28,2.79,8.28Z" transform="translate(-124.5 -180.12)"/><polygon class="cls-2" points="138.9 485.01 141.15 487.12 154.75 487.12 152.72 485.01 138.9 485.01 138.9 485.01"/><path class="cls-2" d="M145.92,640.88s-6.6-6.09-2.19-24.35c2.6-10.82,11.14-17.18,22.46-17.4a47.72,47.72,0,0,1,27.71,8.61v-19.1h-.17l-2-.49V605s-14-8.11-25.67-8.45c-8.8-.27-20.45,2.54-24.67,17.92-5.15,18.73,4.56,26.37,4.56,26.37Z" transform="translate(-124.5 -180.12)"/><path class="cls-2" d="M137,657.45s9.8,8.87,28.73,8.78a83.67,83.67,0,0,0,32.44-6.68,20,20,0,0,1-1.36-4,28.49,28.49,0,0,1-.67-7.1V634.11a17.48,17.48,0,0,1,.76-4.89,30.12,30.12,0,0,1,1.78-4.91h3s-2,2.79-2.88,9.22c-.48,3.45-.25,18.34-.25,18.34a23,23,0,0,0,.68,6.16,27.19,27.19,0,0,1,1.1,4.15s-2,1.75-14.36,4.31c-33.46,6.93-48.92-9-48.92-9Z" transform="translate(-124.5 -180.12)"/><path class="cls-2" d="M378.35,665.08h19.43l-1.4-3.88a21,21,0,0,1-1-2.8,16.45,16.45,0,0,1-.37-3l0-27.58,23.61-41.62h3.68L397.15,630.4l.08,27a11,11,0,0,0,.17,2.24c.2,1.21.42,2.4.42,2.4l2.29,5.26H378l.4-2.18Z" transform="translate(-124.5 -180.12)"/><path class="cls-2" d="M386.15,609.1l-.28.67-10.94-19.53a2.54,2.54,0,0,1-.34-.82,6,6,0,0,1,0-1.55c0-.35.14-1.65.14-1.65h2.55s-.36,2.78-.42,3.47c-.05.52-.07,1.78-.07,1.78a6.51,6.51,0,0,0,.22,1.23c.12.33,9.19,16.4,9.19,16.4Z" transform="translate(-124.5 -180.12)"/><path class="cls-2" d="M480.41,640.88s-6.6-6.09-2.19-24.35c2.6-10.82,11.14-17.18,22.46-17.4a47.74,47.74,0,0,1,27.7,8.61v-19.1h-.16l-2-.49V605s-14-8.11-25.66-8.45c-8.81-.27-20.45,2.54-24.68,17.92-5.14,18.73,4.57,26.37,4.57,26.37Z" transform="translate(-124.5 -180.12)"/><path class="cls-2" d="M471.45,657.45s9.8,8.87,28.71,8.78a83.63,83.63,0,0,0,32.45-6.68,18.9,18.9,0,0,1-1.35-4,28,28,0,0,1-.67-7.1V634.11a17.48,17.48,0,0,1,.76-4.89,28,28,0,0,1,1.78-4.91h2.94s-1.94,2.79-2.87,9.22c-.49,3.45-.25,18.34-.25,18.34a22.1,22.1,0,0,0,.7,6.16,27.46,27.46,0,0,1,1.07,4.15s-2,1.75-14.36,4.31c-33.45,6.93-48.91-9-48.91-9Z" transform="translate(-124.5 -180.12)"/><path class="cls-2" d="M604.11,601.65s-10.2-9.71-23.81-4.64c-8.68,3.23-15,12.09-16,21.71-1.6,15.48,7.17,24.1,7.17,24.1s-8.87-13.19-3.64-27.29c3.74-10,8.75-13.86,15.39-16.4,10.56-4.07,20.85,2.52,20.85,2.52Z" transform="translate(-124.5 -180.12)"/><path class="cls-2" d="M625.93,599.63s8.86,13.1,7,27.72c-1.59,12.53-8.28,26.8-26.37,34.9C582.88,672.9,564,657.94,564,657.94s9.46,8.46,22.54,9.8c10.3,1.07,21.9-1.34,30.33-7.35a42.21,42.21,0,0,0,18-34.82,43.56,43.56,0,0,0-9-25.94Z" transform="translate(-124.5 -180.12)"/><path class="cls-2" d="M702.16,602.08s-10.23-9.73-23.83-4.66c-8.69,3.26-15,12.09-16,21.73-1.61,15.48,7.17,24.09,7.17,24.09s-8.87-13.19-3.63-27.31c3.72-10,8.74-13.84,15.38-16.39,10.55-4.06,20.87,2.54,20.87,2.54Z" transform="translate(-124.5 -180.12)"/><path class="cls-2" d="M724,600.05s8.88,13.1,7,27.72c-1.61,12.53-8.28,26.8-26.35,34.92-23.7,10.62-42.58-4.31-42.58-4.31s9.46,8.45,22.56,9.79c10.28,1.07,21.86-1.34,30.32-7.35a42.17,42.17,0,0,0,18-34.81,43.43,43.43,0,0,0-8.95-26Z" transform="translate(-124.5 -180.12)"/><path class="cls-2" d="M762.75,610.83s-3.65-2.44-2.61-8c.47-2.61,3.34-5.79,9-5.58,6.59.25,12.12,5.41,12.12,5.41a19.39,19.39,0,0,0-8.61-3.13c-5.24-.37-8.66,1.53-10,5.07a7.93,7.93,0,0,0,.08,6.22Z" transform="translate(-124.5 -180.12)"/><polygon class="cls-2" points="664.27 429.23 662.12 427.07 662.12 410.08 664.24 411.89 664.27 429.23 664.27 429.23"/><path class="cls-2" d="M748.05,665v-1.32a55.32,55.32,0,0,0,14.23,2.58c4.86.09,14.15-1.16,20.53-6.68s6.89-10.69,7.47-16.76c.71-7.17-3.5-14.76-3.5-14.76s4.86,6,5.66,13.44c1.18,11-4.47,28.06-30.58,26.7-6.22-.32-13.81-3.2-13.81-3.2Z" transform="translate(-124.5 -180.12)"/><path class="cls-2" d="M863.66,590.32a5.42,5.42,0,1,1,5.42,5.43,5.38,5.38,0,0,1-5.42-5.43Zm5.42,4.54a4.52,4.52,0,1,0-4.34-4.54,4.35,4.35,0,0,0,4.34,4.54ZM868,593.47H867v-6.25h2.35c1.47,0,2.18.54,2.18,1.77a1.64,1.64,0,0,1-1.6,1.73l1.76,2.75h-1.05L869,590.75H868v2.72Zm1.12-3.53c.78,0,1.5-.05,1.5-1,0-.78-.7-.92-1.36-.92H868v1.93Z" transform="translate(-124.5 -180.12)"/><path class="cls-2" d="M382.38,180.85c-.65,1.07-9.28,16.83-5.91,37.68,0,0-5.58-4.59-11.33-20.93,0,0-.44-1.13-.74-.25a62.63,62.63,0,0,0,1,28.82s-2,2.17-2,11.33c0,11.08,1.87,22.17,5.91,29.31a27,27,0,0,0-1.73,10.34c0,19.32,15,43.05,16.75,45.33,0,0-.24,2.77-.24,5.91,0,34.6,38.54,52.09,44.82,106.15A78.67,78.67,0,0,0,448.64,453s-1.48,1.64-12.56,15.27-19.71,23.23-28.33,24.87c-.49,0-.44.5,0,.74s3.6,3.85,14.53,3.94a19.31,19.31,0,0,1-7.63,2.47c-.49,0-.35.29.25.49s11.47,6.65,33.25,6.65c80.35-4.1,113.75-65.39,155.17-77.59,8.37,0,19.26-4.77,27.09-13.79,1.13-.89,6.31-3.1,14.78-6.16,3-.88,4.43-2.61,4.43-3.44s0-2.22-3.44-2.22,0,.24-6.9.24c-12.12,0-21.23-3.69-26.85-3.69-13.59,0-18.67,11.08-22.9,14.78s-12.37,5.76-18,6.9-30,5.07-36.94,8.12c.69-3.1,1.08-8.77,8.37-18.47s24.47-27.26,31.28-40.89c6.33-15,10.6-26.68,13.06-33.74s3.94-21.77,14.53-37.19c.56-.69,1.58-3.24-.74-2s-16.71,14.25-18.22,22.41a12.18,12.18,0,0,1,1.23-10.84c.31-.45.7-1.9-1-.74s-4,2.18-10.84,11.83c-2.13,2.79-2.17,5.21-11.57,18.22-4,5.46-9.85,13.34-15.77,20.45s-19,22.25-32.75,34.48c-10.64,9.57-15.28,13.3-15.28,13.3a214.61,214.61,0,0,1-20-24.14c-9.65-13.69-23.1-34.78-26.6-41.13s-20.81-36.58-32.51-62.81-20.77-48-27.34-70.69-7-26.4-7.14-27.58S383,179.78,382.38,180.85Z" transform="translate(-124.5 -180.12)"/><path class="cls-3" d="M125.47,715.8H129l6.91,20.08,7.22-21.16,7.28,21.16,7-20.08h3.5l-10.57,28.35-7.14-21.1-7.1,21.1Z" transform="translate(-124.5 -180.12)"/><path class="cls-3" d="M198.67,729.5a14.22,14.22,0,0,1-1.08,5.52,13.86,13.86,0,0,1-3.16,4.61,14.88,14.88,0,0,1-10.35,4.19,14.59,14.59,0,0,1-5.57-1.09,14.8,14.8,0,0,1-4.74-3.1,13.8,13.8,0,0,1-3.18-4.63,14.35,14.35,0,0,1,0-11,13.74,13.74,0,0,1,3.18-4.64,14.35,14.35,0,0,1,4.73-3.07,14.82,14.82,0,0,1,5.58-1.08,15,15,0,0,1,5.61,1.08,14.39,14.39,0,0,1,4.74,3.07,13.8,13.8,0,0,1,3.16,4.62A14.28,14.28,0,0,1,198.67,729.5Zm-14.59,11.26a10.84,10.84,0,0,0,4.26-.85,11.2,11.2,0,0,0,6.94-10.41,11.52,11.52,0,0,0-.85-4.36,11.14,11.14,0,0,0-10.35-6.93,11.18,11.18,0,0,0-4.31.84,10.64,10.64,0,0,0-3.6,2.44,11.17,11.17,0,0,0-2.44,3.67,11.37,11.37,0,0,0-.84,4.34,11,11,0,0,0,.83,4.29,11.58,11.58,0,0,0,6.1,6.13A10.94,10.94,0,0,0,184.08,740.76Z" transform="translate(-124.5 -180.12)"/><path class="cls-3" d="M210.83,743.09V715.8h6.42a18.44,18.44,0,0,1,4,.31,5.91,5.91,0,0,1,2.25,1,6.21,6.21,0,0,1,1.88,2.55,9,9,0,0,1,.67,3.53,6.62,6.62,0,0,1-1.87,5.1,7.8,7.8,0,0,1-5.49,1.74h-.58l10.42,13h-4.12l-9.95-13H214v13ZM214,718.54v9.14h2.48c2.54,0,4.23-.33,5.09-1a4,4,0,0,0,1.29-3.42c0-1.76-.44-3-1.33-3.68s-2.56-1.06-5.05-1.06Z" transform="translate(-124.5 -180.12)"/><path class="cls-3" d="M240.51,743.09V715.8h3.24V740h10.31v3.09Z" transform="translate(-124.5 -180.12)"/><path class="cls-3" d="M268.1,743.09V715.8h5.23a39.1,39.1,0,0,1,8.2.59,11.05,11.05,0,0,1,4.16,2,11.25,11.25,0,0,1,3.56,4.62,17.83,17.83,0,0,1,0,12.94,11.32,11.32,0,0,1-7.64,6.59,31.31,31.31,0,0,1-7.11.58H268.1Zm3.28-3.05h2.07a37,37,0,0,0,7-.44,7.52,7.52,0,0,0,3.22-1.5,9,9,0,0,0,2.56-3.61,15.17,15.17,0,0,0,0-10.1,8.87,8.87,0,0,0-2.57-3.59,7.6,7.6,0,0,0-3.27-1.54,35.72,35.72,0,0,0-6.92-.46h-2.07Z" transform="translate(-124.5 -180.12)"/><path class="cls-3" d="M298.88,725.31l3.55-10.12,3.17,1.1-4.57,9.9Z" transform="translate(-124.5 -180.12)"/><path class="cls-3" d="M327.11,727.94a9.22,9.22,0,0,1,4,3,7.43,7.43,0,0,1,1.35,4.45,8.05,8.05,0,0,1-2.39,6.07,9.81,9.81,0,0,1-11.76.65,8.15,8.15,0,0,1-2.94-4.69l2.94-1.45a7.4,7.4,0,0,0,2,3.76,4.84,4.84,0,0,0,3.44,1.27,5.55,5.55,0,0,0,3.95-1.4A4.77,4.77,0,0,0,329.2,736a5,5,0,0,0-1.05-3.18,8,8,0,0,0-3.18-2.28l-3.32-1.42a9.34,9.34,0,0,1-4-2.92,7,7,0,0,1-1.34-4.29,6.11,6.11,0,0,1,2.17-4.81,8,8,0,0,1,5.51-1.9,8.4,8.4,0,0,1,4.26,1,7.08,7.08,0,0,1,2.81,3.08L328.32,721a7,7,0,0,0-2.05-2.35,4.41,4.41,0,0,0-2.57-.78,4.16,4.16,0,0,0-3,1.12,4,4,0,0,0-.27,5.37,7.38,7.38,0,0,0,2.78,1.88Z" transform="translate(-124.5 -180.12)"/><path class="cls-3" d="M359.72,743.09V715.8h5.69a22.66,22.66,0,0,1,4.43.31,6.48,6.48,0,0,1,2.45,1,6.57,6.57,0,0,1,2,2.49A7.66,7.66,0,0,1,375,723a6,6,0,0,1-1,3.61,5.44,5.44,0,0,1-3,2,5.78,5.78,0,0,1,3.83,2.17,7.13,7.13,0,0,1,1.41,4.54,8.3,8.3,0,0,1-.6,3.13A7.56,7.56,0,0,1,374,741a6.38,6.38,0,0,1-2.85,1.61,24.28,24.28,0,0,1-5.7.46Zm3.17-24.47v9.13h2.52c2.31,0,3.94-.34,4.88-1a3.86,3.86,0,0,0,1.42-3.39c0-1.75-.44-3-1.32-3.68s-2.53-1-5-1Zm0,11.69v10h2.52a25,25,0,0,0,3.74-.2,4.52,4.52,0,0,0,1.83-.71,4,4,0,0,0,1.32-1.66,5.49,5.49,0,0,0,.49-2.35,5.41,5.41,0,0,0-.58-2.59,4,4,0,0,0-1.68-1.72,4.51,4.51,0,0,0-1.51-.56,15.57,15.57,0,0,0-2.66-.16h-3.47Z" transform="translate(-124.5 -180.12)"/><path class="cls-3" d="M390.51,743.09V715.8H404.9v3H393.75v7.82H404.9v3H393.75v10.45H404.9v3Z" transform="translate(-124.5 -180.12)"/><path class="cls-3" d="M430.31,727.94a9.22,9.22,0,0,1,4,3,7.43,7.43,0,0,1,1.35,4.45,8.05,8.05,0,0,1-2.39,6.07,9.81,9.81,0,0,1-11.76.65,8.15,8.15,0,0,1-2.94-4.69l2.94-1.45a7.4,7.4,0,0,0,2,3.76,4.84,4.84,0,0,0,3.44,1.27,5.53,5.53,0,0,0,3.95-1.4A4.77,4.77,0,0,0,432.4,736a5,5,0,0,0-1-3.18,8,8,0,0,0-3.18-2.28l-3.32-1.42a9.4,9.4,0,0,1-4.05-2.92,7,7,0,0,1-1.34-4.29,6.14,6.14,0,0,1,2.17-4.81,8,8,0,0,1,5.52-1.9,8.34,8.34,0,0,1,4.25,1,7.08,7.08,0,0,1,2.81,3.08L431.53,721a7.09,7.09,0,0,0-2-2.35,4.46,4.46,0,0,0-2.58-.78,4.16,4.16,0,0,0-3,1.12,4,4,0,0,0-.27,5.37,7.38,7.38,0,0,0,2.78,1.88Z" transform="translate(-124.5 -180.12)"/><path class="cls-3" d="M453.15,743.09V718.9h-7.71v-3.1h18.67v3.1h-7.68v24.19Z" transform="translate(-124.5 -180.12)"/><path class="cls-3" d="M495,743.09V718.9h-7.72v-3.1H506v3.1h-7.68v24.19Z" transform="translate(-124.5 -180.12)"/><path class="cls-3" d="M526.29,714.72l12.41,28.37h-3.52l-3.54-8.37H521l-3.54,8.37h-3.52Zm0,7.18L521.94,732h8.69Z" transform="translate(-124.5 -180.12)"/><path class="cls-3" d="M560.61,727.94a9.22,9.22,0,0,1,4,3,7.43,7.43,0,0,1,1.35,4.45,8,8,0,0,1-2.4,6.07,9.8,9.8,0,0,1-11.75.65,8.16,8.16,0,0,1-3-4.69l3-1.45a7.33,7.33,0,0,0,2,3.76,4.84,4.84,0,0,0,3.44,1.27,5.57,5.57,0,0,0,4-1.4A4.81,4.81,0,0,0,562.7,736a5,5,0,0,0-1.06-3.18,8,8,0,0,0-3.17-2.28l-3.32-1.42a9.38,9.38,0,0,1-4.06-2.92,7,7,0,0,1-1.33-4.29,6.13,6.13,0,0,1,2.16-4.81,8,8,0,0,1,5.52-1.9,8.4,8.4,0,0,1,4.26,1,7.08,7.08,0,0,1,2.81,3.08L561.82,721a7,7,0,0,0-2.05-2.35,4.43,4.43,0,0,0-2.57-.78,4.15,4.15,0,0,0-3,1.12,4,4,0,0,0-.27,5.37,7.33,7.33,0,0,0,2.77,1.88Z" transform="translate(-124.5 -180.12)"/><path class="cls-3" d="M583.7,743.09V718.9H576v-3.1h18.68v3.1H587v24.19Z" transform="translate(-124.5 -180.12)"/><path class="cls-3" d="M605.18,743.09V715.8h3.25v27.29Z" transform="translate(-124.5 -180.12)"/><path class="cls-3" d="M621.9,743.09V714.72l20,21.81V715.8H645v28.35l-20-21.56v20.5Z" transform="translate(-124.5 -180.12)"/><path class="cls-3" d="M673.36,729h11.26v.91q0,6.45-3.66,10.18t-10,3.73a16.1,16.1,0,0,1-3.66-.41,13.28,13.28,0,0,1-3.22-1.19,13,13,0,0,1-5.18-5.1,14.83,14.83,0,0,1-1.83-7.39,16.69,16.69,0,0,1,1.09-6.16,13.49,13.49,0,0,1,3.29-4.84,12.32,12.32,0,0,1,4.29-2.65,15.55,15.55,0,0,1,5.41-.89,15.27,15.27,0,0,1,6.82,1.42,12.17,12.17,0,0,1,4.79,4.3l-2.72,2.18a10.08,10.08,0,0,0-3.67-3.72,10.31,10.31,0,0,0-5.11-1.24,10,10,0,0,0-7.72,3.21,11.89,11.89,0,0,0-3,8.39,11.08,11.08,0,0,0,3,8,10.16,10.16,0,0,0,7.67,3.14,9.76,9.76,0,0,0,6.83-2.49,9.37,9.37,0,0,0,3-6.48h-7.79Z" transform="translate(-124.5 -180.12)"/><path class="cls-3" d="M721.26,744.15,709.72,715.8h3.53l8,20.88,8-20.88h3.5Z" transform="translate(-124.5 -180.12)"/><path class="cls-3" d="M772.15,729.5a14,14,0,0,1-1.09,5.52,13.83,13.83,0,0,1-3.15,4.61,14.88,14.88,0,0,1-10.35,4.19,14.59,14.59,0,0,1-5.57-1.09,14.84,14.84,0,0,1-4.75-3.1,14.12,14.12,0,0,1,0-20.29,14.5,14.5,0,0,1,4.74-3.07,14.82,14.82,0,0,1,5.58-1.08,15,15,0,0,1,5.61,1.08,14.5,14.5,0,0,1,4.74,3.07,13.77,13.77,0,0,1,3.15,4.62A14.11,14.11,0,0,1,772.15,729.5Zm-14.59,11.26a10.84,10.84,0,0,0,4.26-.85,11.2,11.2,0,0,0,6.93-10.41,11.33,11.33,0,0,0-.85-4.36,10.81,10.81,0,0,0-2.43-3.65,11,11,0,0,0-3.63-2.44,11.07,11.07,0,0,0-4.28-.84,11.18,11.18,0,0,0-4.31.84,10.45,10.45,0,0,0-3.6,2.44,11,11,0,0,0-2.44,3.67,11.37,11.37,0,0,0-.84,4.34,11,11,0,0,0,.83,4.29,11.58,11.58,0,0,0,6.1,6.13A10.86,10.86,0,0,0,757.56,740.76Z" transform="translate(-124.5 -180.12)"/><path class="cls-3" d="M784.31,743.09V715.8h5.24a38.93,38.93,0,0,1,8.19.59,11,11,0,0,1,4.17,2,11.34,11.34,0,0,1,3.56,4.62,18,18,0,0,1,0,12.94,11.32,11.32,0,0,1-7.64,6.59,31.43,31.43,0,0,1-7.11.58h-6.42Zm3.28-3.05h2.07a36.94,36.94,0,0,0,7-.44,7.56,7.56,0,0,0,3.23-1.5,8.86,8.86,0,0,0,2.55-3.61,15,15,0,0,0,0-10.1,8.85,8.85,0,0,0-2.56-3.59,7.65,7.65,0,0,0-3.27-1.54,35.84,35.84,0,0,0-6.93-.46h-2.07Z" transform="translate(-124.5 -180.12)"/><path class="cls-3" d="M817.85,743.09V715.8h3.21v12.14l11.46-12.14h3.88l-11.71,12.29,12.86,15h-4.19l-12.3-14.69v14.69Z" transform="translate(-124.5 -180.12)"/><path class="cls-3" d="M857.57,714.72,870,743.09h-3.52l-3.54-8.37H852.25l-3.54,8.37h-3.52Zm0,7.18L853.22,732h8.69Z" transform="translate(-124.5 -180.12)"/><polygon class="cls-4" points="402.87 620.31 341.21 620.31 279.56 620.31 279.56 638.29 341.21 638.29 402.87 638.29 464.53 638.29 464.53 620.31 402.87 620.31"/><rect class="cls-5" x="280.79" y="621.54" width="60.84" height="15.52"/><rect class="cls-6" x="341.63" y="621.54" width="60.84" height="15.52"/><rect class="cls-7" x="402.46" y="621.54" width="60.84" height="15.52"/></svg>