<svg id="Layer_1" data-name="Layer 1" xmlns="http://www.w3.org/2000/svg" viewBox="0 0 283.46 123.36"><defs><style>.cls-1{fill:#231f20;}</style></defs><title>Harrods</title><path class="cls-1" d="M194.28,482.63h4.21c4.21,0,4.76-2,4.76-6.92,0,0,0-37.83,0-40.38s.51-3.08,3.08-3.43,10-1.1,11.92-1.1c1.51,0,2.71.36,2.52,3.31v42.3c0,4.88.57,5.81,2.68,5.81h3.92c2.75,0,3.34-2.63,3.34-5.81,0-2.79,0-40,0-43,0-2.64.37-3.45,3.49-3.8,1-.12,5.8-.47,8-.47,5,0,6.36,1.36,4.32,4.53-1.39,2.17-6,13.37-6,19.5,0,3,1.68,8.83,5.87,8.83s8.27-6.18,10.92-10.61c2.27-3.77,3.43-3.7,4.65.61.73,2.56,1.4,8.06,4.43,9.72a4.18,4.18,0,0,0,3.92,0c6.07-3.4,11.89-17.08,14.31-27.5,1.42-6.12,6.24-5.31,5.93-.09V452.5c0,2.9,1.31,7.52,4.72,9.26a7.64,7.64,0,0,0,5.64-.12c6.77-2.76,12.54-24.78,13.58-28.43,1.28-4.53,5.81-3.45,5.57.67v18.5c0,4.13,1.78,8.25,4.21,9.4a7.39,7.39,0,0,0,6.32-.17c2.38-1.21,4.41-4.56,6-7.05,1.93-3.07,3.19-3.05,5.58.47,1.3,1.92,4.88,7.28,12.32,7.28,10.53,0,15.25-11.08,15.25-17.94,0-3.25.37-5.48,2-6.34s4.35-2.15,5.75-2.15c2.23,0,1.05,3,.82,3.84a51.83,51.83,0,0,0-1.74,10.68c0,6,2.16,11.8,7.2,11.8s9.18-6.51,10.58-8.74c1.66-2.67,3.14-2.62,3.42.14a19.18,19.18,0,0,1,.18,3c0,3.87,1.16,5.6,3.23,5.6h2.5c2,0,4.27-1.84,4.27-6.56v-73.1c0-3.72-.74-4.42-3.29-4.42H402.5c-2.56,0-4,1.17-4,4.42v38.58c0,1.86-.66,2.76-2.05,2.76a9.23,9.23,0,0,0-4.91,1c-5.7,2.79-12.29,6-16.65,7.46s-5.38,1.74-6.6-.18c-2.68-4.22-5.6-8.67-13.48-8.67a14.91,14.91,0,0,0-12.24,6.43c-3,4.08-3.7,8.6-5,12.6-3,8.87-7.82,14.61-7.82,7.69l0-7.78.2-7.24c0-5.08-5.61-6.74-8.94-7.75-4.05-1.23-4.37-3.49-4.37-7.47s-.46-7.29-3.94-7.29c-1.79,0-6.31,1.33-6.31,7.29,0,4.42,4.45,6.25,4.45,10.17,0,2.64-2.92,11.76-4.8,16.18-1.24,2.94-3.07,6.66-4.22,6.66s-1.38-1.21-1.38-3.64V434.08c0-4.79-6.4-6.42-9.94-7.64-3.15-1.09-3.22-3.07-3.22-7.09,0-6.12-2.17-7.35-4.33-7.35-2.79,0-5.93,2-5.93,7.06,0,5.26,4.39,6.16,4.39,10.63,0,2.82-4.3,16.15-6.92,20.43-1.88,3.07-2.81,2.92-3.75.17-1.1-3.24-2-13.64-2.84-15.92s-4.21-2.24-5.53,0c-1.8,3-7.46,14.32-11.24,19-.3.36-3,3.72-3,.23,0-4.34,6-13.54,10.89-18.54,3.82-3.94,8.51-4.82,8.51-8.4,0-3.8-4.76-3.63-8.25-3.63-10.32,0-21.67.76-25.45.93-2.95.14-3-.27-3-3.6V363.22c0-2.29-1.16-4-3.6-4h-1.25c-3.84,0-5.15,1.28-5.15,7v54.62c0,3.18-.65,4.15-3.22,4.47l-11.19,1.11c-2.32.2-2.79-.32-2.79-4.42V366.24c0-7-3.5-7-5.28-7H195c-1.7,0-5.43,1.7-5.43,7v57.64c0,3.84-.31,4.4-3.72,4.88-3.26.46-20.75,2.56-26.62,3.26-2.17.25-3,.48-3.31,1.46a8.63,8.63,0,0,0,0,1.76c.08,1.15,1.35,1.8,2.82,1.63,3-.35,24.9-3,24.9-3,4.51-.58,5.69-.45,5.69,3.11v39.65c0,3.56,1.74,6,4.92,6m160.25-50.82c0-2.48,2-3.37,3.87-3.37,2.16,0,5.28,2.62,5.28,4.94,0,1.32-1.05,2.94-3.45,2.94C358.13,436.32,354.53,434.6,354.53,431.81Zm-2.93,5.32c2.77.35,2.55,1.86,5.58,2.79s4.88.46,6.5.46,1.69.7,1.69,3.72c0,3.88-1.64,13.42-8.92,13.42-7.05,0-7.73-8.84-7.73-12.72C348.72,439.92,349.74,436.9,351.6,437.13Zm43.67-4.88c1.93,0,1.41,2.24,1.41,3,0,3.33-6.73,21.15-10.92,21.15-.93,0-1.45-.55-1.45-2.41C384.31,449.52,390.85,432.25,395.27,432.25Zm21.32-2.71c-3.87,3.64-5.26,6.56-5.26,10.58,0,6.23,5.46,7.58,11.74,10,4.66,1.81,8.25,3.22,8.25,7.44,0,8.6-15.05,11.77-18.46,15.29a7.33,7.33,0,0,0-2.35,5.56c0,1.24.08,4,3.41,4,4,0,12.41-4.91,16.89-8.24,4.95-3.68,7.6-8.06,7.6-13.87a12.94,12.94,0,0,0-6.07-10.77c-2.84-1.75-7-2.59-10-3.81-5.56-2.27-3.92-5.15-1.51-7.73,7.38-7.9,13.54-5.52,16.87-9.22a8.25,8.25,0,0,0,1.7-4.84,4.21,4.21,0,0,0-4-4.45C433.33,419.49,423.13,423.37,416.59,429.54Z" transform="translate(-155.91 -359.26)"/></svg>