<svg id="Layer_1" data-name="Layer 1" xmlns="http://www.w3.org/2000/svg" viewBox="0 0 192.76 192.76"><defs><style>.cls-1{fill:#231f20;}.cls-1,.cls-2{fill-rule:evenodd;}.cls-2{fill:#fff;}</style></defs><title>Hublot</title><polygon class="cls-1" points="0 0 192.76 0 192.76 192.76 0 192.76 0 0 0 0"/><path class="cls-2" d="M249.92,438.43v-19.6h2.67v8.05h10.16v-8.05h2.68v19.6h-2.68v-9.18H252.59v9.18ZM270.71,431V418.83h2.67V431a5.82,5.82,0,0,0,1.21,4.07,6,6,0,0,0,7.55,0,5.76,5.76,0,0,0,1.24-4.05V418.83h2.68V431q0,3.94-2,6a8.13,8.13,0,0,1-6,2,7.14,7.14,0,0,1-5.51-2c-1.22-1.33-1.84-3.33-1.84-6Zm20.63,7.44v-19.6h7.91a7.31,7.31,0,0,1,4.57,1.2,4.29,4.29,0,0,1,1.52,3.58,4.61,4.61,0,0,1-.7,2.6,4.56,4.56,0,0,1-2.11,1.65,4.37,4.37,0,0,1,2.76,1.57,4.9,4.9,0,0,1,1,3.15,5.43,5.43,0,0,1-1.78,4.27,7.07,7.07,0,0,1-4.84,1.58ZM294,427.07h4.67a5.05,5.05,0,0,0,3-.74,2.76,2.76,0,0,0,1-2.34,2.62,2.62,0,0,0-.93-2.21,4.74,4.74,0,0,0-2.86-.71H294v6Zm0,9h5.4a4.63,4.63,0,0,0,3.09-.9,3.23,3.23,0,0,0,1.05-2.61,2.93,2.93,0,0,0-1.07-2.5,5.67,5.67,0,0,0-3.37-.8H294v6.81Zm16.58,2.37v-19.6h2.69V436H323v2.48Zm16.7-9.78a9,9,0,0,0,1.74,5.89,6.49,6.49,0,0,0,9.6,0,11,11,0,0,0,0-11.79,6.51,6.51,0,0,0-9.6,0,9,9,0,0,0-1.74,5.9Zm-2.75,0q0-4.86,2.47-7.59a9.87,9.87,0,0,1,13.64,0c1.64,1.82,2.45,4.35,2.45,7.6s-.81,5.77-2.45,7.59a9.86,9.86,0,0,1-13.64,0q-2.47-2.73-2.47-7.59ZM352,438.43V421.21h-6.19v-2.38h15.05v2.38h-6.18v17.22Z" transform="translate(-209 -300)"/><polygon class="cls-2" points="81.42 54.16 91.62 54.16 91.62 110.59 81.42 110.59 81.42 54.16 81.42 54.16"/><polygon class="cls-2" points="99.09 54.16 109.29 54.16 109.29 110.59 99.09 110.59 99.09 54.16 99.09 54.16"/><path class="cls-2" d="M332,353.89h4.27c-1.85,37.36-59.36,24.46-59.12,57h-4.41c.21-35.62,58.91-24.36,59.26-57Z" transform="translate(-209 -300)"/><path class="cls-2" d="M331.8,353.78h4.07c0,13.64-7.86,20.54-17.86,25.39v31.3H307.82V383.4c-2.5.93-5,1.83-7.47,2.76v24.31H290.11V390.66c-7.73,4.15-13.31,9.83-13.31,19.81h-4.37c0-12.88,7.77-19.59,17.68-24.45V353.78h10.24v27.9c2.5-1,5-1.9,7.47-2.86v-25H318v20.44c8-4.36,13.79-10.24,13.79-20.44Z" transform="translate(-209 -300)"/></svg>