<svg id="Layer_1" data-name="Layer 1" xmlns="http://www.w3.org/2000/svg" viewBox="0 0 421.53 238.4"><defs><style>.cls-1,.cls-3{fill:#ee2d3a;}.cls-1{stroke:#ee2d3a;stroke-miterlimit:2.61;stroke-width:0.22px;}.cls-2{fill:#ffe610;}.cls-2,.cls-3{fill-rule:evenodd;}</style></defs><title>red-bull</title><path class="cls-1" d="M497.68,450.2c.68,0,3.9.06,3.9,3.39a3,3,0,0,1-2.65,2.88v-.17a2.16,2.16,0,0,1,1.4,1.37l2.13,4.93H500.7L498.62,458c-.29-.63-.46-1-1.48-1h-1.4v5.62h-1.62V450.2Zm-1.94,5.36h1.51c1.77,0,2.62-1,2.62-2,0-.74-.2-2-2.25-2h-1.88v3.93Zm2.17-9.75h0a10.52,10.52,0,1,1-10.52,10.52,10.54,10.54,0,0,1,10.52-10.52Zm0,19.61h0a9.09,9.09,0,1,0-9.09-9.09,9,9,0,0,0,9.09,9.09Z" transform="translate(-87 -301.89)"/><path class="cls-2" d="M138.05,368.76a11.83,11.83,0,0,1-3.16-4.77,16.86,16.86,0,0,1-1.21-5.05,17.44,17.44,0,0,1,8.87-15.22,10.24,10.24,0,0,0,3.18-2.32,1.65,1.65,0,0,0-.48-.13c-6.24,0-9.44-2.42-11-4.47a11.47,11.47,0,0,1-2.24-7.11,16.19,16.19,0,0,1,.55-4.1c1.75-2.9,3.42-2.1,4.45-.62.65.93,5.11,4.1,10.62,4.6a9.64,9.64,0,0,1,7.28,3.9,10.21,10.21,0,0,1,1.79,5.85,8.72,8.72,0,0,1-.25,2.11c-.6,2.45-3.18,4.65-6.77,7.46l-2,1.69c-3,2.61-4.62,5.51-4.62,8a5,5,0,0,0,.32,1.77,3.87,3.87,0,0,0,.31.65c1.33,2.26,5.09,3.67,10.56,1.76a34.84,34.84,0,0,0,10.35-6.87c3.49-3.49,8.15-4.32,12.64-4.68,3.89-.29,6.28-1.24,8-3.14,5-5.62,9.78-6.41,14.27-6.74,1.72-.13,1.81-.26,2-.56a18.33,18.33,0,0,1,7.3-6.06,23.41,23.41,0,0,1,4.62-1.41l1.58-.39.4-.14c2.5-.8,4.43-1.47,9.52-4.9l.22-.14h0l.21-.14h0l.22-.12h0l.21-.12h0l.21-.11h0l.21-.11h0l.21-.11h0l.22-.1h0l.21-.09h0l.21-.08h0l.21-.08h0l.22-.07.23-.08h0l.21-.07h0l.21-.07h0l.21-.06h0l.21-.06h0l.21-.05h0l.22-.05h0l.22,0h0l.21,0h0l.21,0h0l.22,0h0l.21,0h0l.21,0h.26l.21,0h1.22l.44,0h.23l.2,0h0l.2,0h0l.2,0h0l.2,0h0l.2,0h0l.2,0h0l.2,0h0l.19,0h0l.19,0h0c.31.06.6.12.9.2l.18,0h0l.88.25.17.05h0c.57.18,1.12.38,1.66.6l.15.06.2.08A62.59,62.59,0,0,1,286.8,302h0l1,0,1,0h1.93l.95,0,.95,0h0l.95.05h0A62.62,62.62,0,0,1,339.8,326.9a19.22,19.22,0,0,1,4.91-1h2.53a10.62,10.62,0,0,1,1.24.19l.18,0h0l.18,0h0l.19.05h0l.18.05h0l.19.05h0l.18.06h0l.19.06h0l.2.07.19.07h0l.19.07h0l.19.08h0a10.63,10.63,0,0,1,1,.46h0l.19.1h0l.2.11h0l.19.11h0l.19.12h0l.19.13a36.86,36.86,0,0,0,7.26,4.11c.78.31,1.5.55,2.26.79l.4.14,1.6.39a29.68,29.68,0,0,1,2.92.76,17.74,17.74,0,0,1,9,6.71c.23.3.33.43,2.05.56,4.49.33,9.28,1.12,14.29,6.74,1.67,1.9,4.05,2.85,7.95,3.14,4.51.36,9.16,1.19,12.64,4.68a34.72,34.72,0,0,0,10.35,6.87c5.46,1.91,9.25.5,10.55-1.76a4.66,4.66,0,0,0,.57-1.55,4.94,4.94,0,0,0,.08-.87c0-2.46-1.64-5.36-4.62-8l-.37-.31-1.68-1.38c-3.58-2.81-6.16-5-6.78-7.46a8.75,8.75,0,0,1-.23-2.11,10.34,10.34,0,0,1,1.77-5.85,9.73,9.73,0,0,1,7.29-3.9c5.53-.5,10-3.67,10.62-4.6,1-1.48,2.7-2.28,4.45.62a16.19,16.19,0,0,1,.55,4.1,11.49,11.49,0,0,1-2.24,7.11c-1.58,2.05-4.77,4.47-11,4.47a1.59,1.59,0,0,0-.47.13,10.13,10.13,0,0,0,3.17,2.32,17.41,17.41,0,0,1,8.88,15.22,16.56,16.56,0,0,1-1.21,5.05,12,12,0,0,1-2.64,4.28c-.16.17-.33.33-.5.49-2.58,2.4-6.88,4.28-14,3.85-.72,0-1.47-.11-2.26-.2-.18,3.61-1.17,7.91-2.57,10.07a2.78,2.78,0,0,0-.5,1.37V384l3.18,1.87.51.25a2.92,2.92,0,0,1,.33.18c.05,0,1.08-.07,1.08-.07l.21,0h0c2-.19,4.95-1.14,6.22,2.41.34.94.54,1.76.73,2.49a5.67,5.67,0,0,0,2,3.59s.64-.55,1.37-1.2,1.25-1.12,1.66-1.53c.91-.93,2.59-.46,3.79,0a30.42,30.42,0,0,1,3.81,2.13,4,4,0,0,1,2,2.28,4,4,0,0,0,2.21,2.12,6.41,6.41,0,0,1,2.68,5.34,4,4,0,0,0,.16,1.15,5.16,5.16,0,0,0,.34.8c1.54,3.11.3,4.67-.59,5.33a7.37,7.37,0,0,1-5.3.94l0,.52-2.91-.39a11.74,11.74,0,0,0-3.49.33l-.21.06a6,6,0,0,1-6.28-2.76,2.54,2.54,0,0,1-.16-.28,9.9,9.9,0,0,0-2.57-3,10.42,10.42,0,0,1-3.81.39,9,9,0,0,1-4.94-2.17c-.29-.24-.58-.5-.87-.79a9.69,9.69,0,0,0-8.07-2.77l-1.26.22c-2.62.48-5.89,1.08-8.91-.76a23.9,23.9,0,0,0-2.89-1.38c-2.74-1.19-5.58-2.42-6-5a7,7,0,0,0-1-2,16.87,16.87,0,0,1-1.06-1.94,5.7,5.7,0,0,1-.52-2.11,9.6,9.6,0,0,1-2.75.28c-.32,0-.65-.05-1-.1l-1.19-.18c-2-.35-6.2-1-7.53-.55-2.67,1-11.05,1.43-13.34.9l-1.64-.35a21.16,21.16,0,0,1-2.52,2.19,29.77,29.77,0,0,1,4.17.14l2.12.56a11.88,11.88,0,0,1,3.25-.09l2.47.18,2.82.27c1.36.28,2.8.86,2.56,3.53a5,5,0,0,1-1.25,2.66,27.08,27.08,0,0,0-2.18,3.23l-.1.2a3.72,3.72,0,0,1-3.91,2.35,8.93,8.93,0,0,0-.94,0c-.08.2-.28.57-.28.57a9,9,0,0,1-2.9,4.06l-.41.29a6.4,6.4,0,0,1-6.45,1.19l-1.08-.38a80.31,80.31,0,0,1-9-3.63l-.29-.16c-1.95-1.07-2.38-1.28-3.09-1.18l-.4.06c-1.5.21-4.32.59-6.27-2.65l-.18-.28a62.71,62.71,0,0,1-39.24,24.77l-.07,0-1.65.28-.2,0-.76.11-.88.12-.54.06-.85.1-.59.06-1.15.09-.37,0-1.06.07h-.38l-1.24.05H291l-1.3,0-1.34,0H288l-1.18,0-.49,0-1-.06-.42,0-1.18-.1-.58-.06-.77-.08-.43-.05-1.21-.17-.49-.07-.87-.14-.44-.07-1-.19-.75-.15-.38-.08-1.53-.34-.14,0-.8-.2-.41-.11-1.42-.38-.17-.05A62.79,62.79,0,0,1,238,400.09L237,401.71c-1.93,3.24-4.75,2.86-6.27,2.65l-.39-.06c-.71-.1-1.16.11-3.09,1.18l-.31.16a78.41,78.41,0,0,1-9,3.63l-1.09.38a6.35,6.35,0,0,1-6.43-1.19l-.43-.29a9,9,0,0,1-2.9-4.06s-.19-.37-.28-.57a8.93,8.93,0,0,0-.94,0,3.72,3.72,0,0,1-3.9-2.35l-.1-.2a24,24,0,0,0-2.19-3.23,4.87,4.87,0,0,1-1.24-2.66c-.25-2.67,1.21-3.25,2.56-3.53l2.82-.27,2.47-.18a11.89,11.89,0,0,1,3.25.09l2.11-.56a29.75,29.75,0,0,1,4.16-.14,25.78,25.78,0,0,1-2.5-2.19l-1.65.35c-2.3.53-10.66.06-13.31-.9-1.34-.49-5.54.2-7.55.55l-1.21.18a9.3,9.3,0,0,1-3.7-.18,8.74,8.74,0,0,1-1.59,4.05,7.4,7.4,0,0,0-1,2c-.36,2.6-3.23,3.83-6,5a23.71,23.71,0,0,0-2.88,1.38c-3,1.84-6.28,1.24-8.91.76l-1.27-.22a9.7,9.7,0,0,0-8.06,2.77,9.15,9.15,0,0,1-9.61,2.57,9.63,9.63,0,0,0-2.58,3,6,6,0,0,1-6.45,3l-.22-.06a11.44,11.44,0,0,0-3.46-.33l-2.92.39,0-.52a7.45,7.45,0,0,1-5.33-.94c-.88-.66-2.12-2.22-.56-5.33a3.94,3.94,0,0,0,.49-1.95,6.4,6.4,0,0,1,2.67-5.34,3.94,3.94,0,0,0,2.21-2.12,4,4,0,0,1,2-2.28,31,31,0,0,1,3.8-2.13c1.21-.46,2.89-.93,3.81,0s3,2.73,3,2.73c1.94-1.49,1.75-3.22,2.76-6.08,1.25-3.55,4.26-2.6,6.21-2.41l.22,0s1,.05,1.08.07l.35-.18.49-.25L157.4,384a.77.77,0,0,0,0-.18,2.68,2.68,0,0,0-.5-1.37c-1.4-2.16-2.39-6.46-2.57-10.07l-1.47.15c-7.64.61-12.17-1.32-14.82-3.8Zm287.43,17.47-.23,0,.23,0Zm-77-60.13a10.62,10.62,0,0,0-1.24-.19l1.24.19Zm3.21,1.15a10.63,10.63,0,0,0-1-.46l1,.46ZM297.6,426.76l.88-.12-.88.12Zm-3.13.31,1.15-.09-1.15.09Zm-1.43.1,1.06-.07-1.06.07Zm-1.62.06,1.24-.05-1.24.05Zm-3.06,0,1.34,0,1.3,0Zm-1.57-.05,1.18,0-1.18,0Zm-1.49-.09,1,.06-1-.06Zm-1.6-.13,1.18.1-1.18-.1Zm-3-.36,1.21.17-1.21-.17Zm-2.84-.47,1,.19-1-.19Z" transform="translate(-87 -301.89)"/><path class="cls-3" d="M234.17,348.25a2.32,2.32,0,0,1,.18-2.39c1-1.54,2,.14,2,.14,3.47,4.85.91,12.1.91,12.1-.36-6.68-3-9.85-3-9.85Zm30,32.08c.06-1.42.18-4.58-1.27-5.71-.53-.43-2.64-2.74-2.64-2.74-.33-.56-.57-.59-.57-.59-.44,0-1,1-1,1-1.5,2.9-3,2.54-3,2.54a2.54,2.54,0,0,1,.34-1.12c.41-.77,2.16-4.23,2.16-4.23.21-.51.42-1.18.42-1.18,1.45-2.24,2.81-.53,2.81-.53a55.86,55.86,0,0,0,3.87,5.07,3.46,3.46,0,0,1,.79,1.78c.75,5.31-1.91,5.74-1.91,5.74Zm-8.57,13.54c-.61,0-.77-.24-.69-.92a4.22,4.22,0,0,1,1.92-2.7c2.84-1.7,3.19,0,3.19,0,.52,3-1.88,3.41-1.88,3.41a16.35,16.35,0,0,1-2.54.21ZM132,402.67a1.16,1.16,0,0,1,.29,1.36s-1.58,4.34-1.51,5.79c0,0-3.5.63-4-1.1a2.81,2.81,0,0,1,.48-1.64,6,6,0,0,0,.75-2.55s0-4.16,2.64-3.06a4.8,4.8,0,0,1,1.34,1.2Zm4.28-6.9a2.65,2.65,0,0,1,2.18-.58c1.7.37.67,1.84.67,1.84a21.37,21.37,0,0,1-2.93,3.45,2.61,2.61,0,0,1-3.58-.28c-1.48-1.46.45-2.16.45-2.16a18.1,18.1,0,0,0,3.21-2.27Zm20.53-26A23.31,23.31,0,0,0,159,381.34s2,2.91-.08,4.78l-4.25,2.47s-.57.43-2.46.28c0,0-2.62-.65-3.49.51a34.62,34.62,0,0,1-1.71,4.05s-1.93,4.44-5.13,5.87a4.89,4.89,0,0,0-3.32,2.79,3.22,3.22,0,0,1-2.47,1.62s-1.23.39-2,3.13a14.09,14.09,0,0,0-.42,3.12,9.14,9.14,0,0,1,3.46.22s3.35,1.13,4.85-1.64c0,0,2.9-5,5-4.21,0,0,4.32,1.44,7.37-1.71,0,0,4.19-4.58,10.1-3.63,0,0,6.67,1.35,8.74-.19,0,0,4.21-2.2,5.79-2.74a3.15,3.15,0,0,0,2.13-2.68,20.52,20.52,0,0,1,2-4l-3.18,0s-2.88,4.84-7.77,6.3c0,0-2.67,1.07-8,.2,0,0-7.71-1.75-14.48,5.57a2,2,0,0,1-2.25.8,18.39,18.39,0,0,1,12-7.89,15.91,15.91,0,0,1,4.93-.21,18.21,18.21,0,0,0,16.19-10.57s-.55-9.29,1.9-11.48c0,0,.95-.29.76,1.5,0,0-1.69,9.73,1.48,11.61a7,7,0,0,0,5.23.91,27.53,27.53,0,0,1,9.33-.51,39.18,39.18,0,0,0,12,.82A8.22,8.22,0,0,1,210,381.6s.79-1.88,1.7-.67c0,0,2.13,7,7.94,9.14,0,0,5.19,1.89,5.11,8.48,0,0-.8.9-7.68,3.35,0,0-2.57.81-3.4-1.11,0,0-3.32-7.11-6.22-6.89l-5.42.44s-1.85.48-.49,2a37.81,37.81,0,0,1,2.62,3.95s.22,1.26,2,1c0,0,2.42-1.2,3.78,3.3a7.08,7.08,0,0,0,3.37,3,5.17,5.17,0,0,0,3.84-.39s9-3.29,10.52-4.45a5.09,5.09,0,0,1,3.47-.57s2.69.65,3.8-1.48l2.78-4.29a4.71,4.71,0,0,0,.53-2.39,3.46,3.46,0,0,0-.86-2.66,5.64,5.64,0,0,1-1.22-1.91l-2-4.66a6.39,6.39,0,0,0-1.68-1.75l-2.65.19a44.4,44.4,0,0,0,3.15,6.55s1.81,2.75,1.71,4.51a3.76,3.76,0,0,1-.6,1.74s-.61,1-.85,1.45a6.7,6.7,0,0,1-1.46,2.12,8.19,8.19,0,0,1-1.4.7s-.48.13-.12-.74c0,0,1.48-3.12,1.38-4.79a3.15,3.15,0,0,0-.94-2.75,49.16,49.16,0,0,1-3.29-5.91,9.1,9.1,0,0,0-1.39-2.13,1.18,1.18,0,0,1,.62-1.94,29.53,29.53,0,0,0,4.77-1.41s2-.59,3.21-4.64c0,0,1.74-4.73,1.71-7.65a12.5,12.5,0,0,1-2,13.27s4.3,1.27,6.08,0c0,0,5.36-.78,6.4-1.07,0,0,1.35-.33.58.63a11,11,0,0,0-1.76,3.81,2.83,2.83,0,0,1-1.08,1.9s-3.05,2.13-3.32,4.18c0,0-.65,2,.69,1.5,0,0,1.83-.85,2.47,0,0,0,.19.09-.51.88a6.16,6.16,0,0,0-2,3.73,9.51,9.51,0,0,0,1,3.26,2,2,0,0,0,2.12.78,1.08,1.08,0,0,1,1-.09,8.55,8.55,0,0,0,2.33-.58s2.55-.7,3.41-1a17.86,17.86,0,0,1,4.85-1.08,8.36,8.36,0,0,1,2.37.15,8.55,8.55,0,0,0,6.77-2.53s2.06-1.64,2.76-.05c0,0,4.94,6.63,12.94,4.88,0,0-6.37-2.62-8-6.18,0,0-.22-3-3.55-7.23,0,0-1-1.4,0-1.76,0,0,.57-.42,1.81.82a21.69,21.69,0,0,1,4.31,5.82s3.94,5.95,9.61,3.95c0,0-4.45-1.72-6.55-4.92a16.25,16.25,0,0,0-5.63-7.56s-.18-4.87-2.2-7.61c0,0-1-4.57-1.31-5.64a37.26,37.26,0,0,1-1.09-5.13,14.54,14.54,0,0,0-3-9.33,28.48,28.48,0,0,0-5.8-7.41s-2.68-3.32-4.68-5.35a47.71,47.71,0,0,0-8.34-7.09,35.93,35.93,0,0,1-4.49-3.91S232.28,325,225,330.87c0,0-5,3.43-9.25,4.49,0,0-8.64,1-12.33,7,0,0-.31,1.11-3.8,1.54,0,0-7.65-.93-13.28,6.6a14.16,14.16,0,0,1-7.8,3.18s-8.46-.87-14,5.61c0,0-13.88,12.11-22.17,4.26,0,0-4.29-4.06.62-11.42a52,52,0,0,1,8.42-7.67s4.3-3,2.33-7.75c0,0-1-4.56-7.5-4.68,0,0-8.09-1.56-11.37-5.65,0,0-3.65,12.88,10.7,12.66,0,0,3.74.55,2.43,3.52a11,11,0,0,1-4.29,3.46s-4.33,1.9-6.29,8.2c0,0-4.37,11,6.3,15.29,4.11,1.41,8.85,1,13.07.26Z" transform="translate(-87 -301.89)"/><path class="cls-3" d="M343.4,348.25a2.32,2.32,0,0,0-.19-2.39c-1-1.54-1.94.14-1.94.14-3.48,4.85-.91,12.1-.91,12.1.35-6.68,3-9.85,3-9.85Zm-30,32.08c-.05-1.42-.17-4.58,1.27-5.71.54-.43,2.65-2.74,2.65-2.74.32-.56.57-.59.57-.59.43,0,1,1,1,1,1.51,2.9,3,2.54,3,2.54a2.49,2.49,0,0,0-.35-1.12c-.41-.77-2.15-4.23-2.15-4.23-.22-.51-.42-1.18-.42-1.18-1.46-2.24-2.82-.53-2.82-.53a56.14,56.14,0,0,1-3.86,5.07,3.46,3.46,0,0,0-.79,1.78c-.76,5.31,1.9,5.74,1.9,5.74ZM322,393.87c.62,0,.78-.24.7-.92a4.26,4.26,0,0,0-1.93-2.7c-2.84-1.7-3.19,0-3.19,0-.51,3,1.88,3.41,1.88,3.41a16.35,16.35,0,0,0,2.54.21Zm123.54,8.8a1.16,1.16,0,0,0-.29,1.36s1.58,4.34,1.51,5.79c0,0,3.51.63,4-1.1a2.72,2.72,0,0,0-.48-1.64,6,6,0,0,1-.74-2.55s0-4.16-2.64-3.06a4.84,4.84,0,0,0-1.35,1.2Zm-4.28-6.9a2.63,2.63,0,0,0-2.17-.58c-1.71.37-.68,1.84-.68,1.84a21.27,21.27,0,0,0,2.94,3.45,2.6,2.6,0,0,0,3.57-.28c1.48-1.46-.45-2.16-.45-2.16a18.5,18.5,0,0,1-3.21-2.27Zm-20.53-26a23.18,23.18,0,0,1-2.14,11.57s-2.05,2.91.08,4.78l4.25,2.47s.57.43,2.46.28c0,0,2.62-.65,3.49.51a34.62,34.62,0,0,0,1.71,4.05s1.94,4.44,5.13,5.87a4.89,4.89,0,0,1,3.32,2.79,3.22,3.22,0,0,0,2.47,1.62s1.23.39,2.05,3.13A14.78,14.78,0,0,1,444,410a9.14,9.14,0,0,0-3.46.22s-3.36,1.13-4.86-1.64c0,0-2.9-5-5.05-4.21,0,0-4.31,1.44-7.36-1.71,0,0-4.19-4.58-10.11-3.63,0,0-6.66,1.35-8.74-.19,0,0-4.2-2.2-5.78-2.74a3.15,3.15,0,0,1-2.13-2.68,20.14,20.14,0,0,0-2-4l3.18,0s2.88,4.84,7.77,6.3c0,0,2.68,1.07,8,.2,0,0,7.71-1.75,14.48,5.57a2,2,0,0,0,2.24.8,18.39,18.39,0,0,0-11.95-7.89,16,16,0,0,0-4.94-.21,18.21,18.21,0,0,1-16.19-10.57s.56-9.29-1.89-11.48c0,0-.95-.29-.76,1.5,0,0,1.68,9.73-1.48,11.61a7,7,0,0,1-5.23.91,27.57,27.57,0,0,0-9.33-.51,39.27,39.27,0,0,1-12,.82,8.13,8.13,0,0,0,1.15-4.83s-.79-1.88-1.7-.67c0,0-2.12,7-7.94,9.14,0,0-5.19,1.89-5.11,8.48,0,0,.8.9,7.69,3.35,0,0,2.57.81,3.4-1.11,0,0,3.32-7.11,6.21-6.89l5.43.44s1.85.48.48,2a38.31,38.31,0,0,0-2.61,3.95s-.22,1.26-2,1c0,0-2.42-1.2-3.79,3.3a7.09,7.09,0,0,1-3.36,3,5.17,5.17,0,0,1-3.84-.39s-9-3.29-10.52-4.45a5.1,5.1,0,0,0-3.48-.57s-2.69.65-3.79-1.48l-2.78-4.29a4.6,4.6,0,0,1-.53-2.39,3.46,3.46,0,0,1,.86-2.66,5.51,5.51,0,0,0,1.21-1.91l2-4.66a6.5,6.5,0,0,1,1.69-1.75l2.64.19a44.4,44.4,0,0,1-3.15,6.55s-1.8,2.75-1.71,4.51a3.76,3.76,0,0,0,.6,1.74s.61,1,.86,1.45a6.62,6.62,0,0,0,1.45,2.12,8.19,8.19,0,0,0,1.4.7s.49.13.12-.74c0,0-1.47-3.12-1.38-4.79a3.15,3.15,0,0,1,.94-2.75,50.37,50.37,0,0,0,3.3-5.91,9,9,0,0,1,1.38-2.13A1.18,1.18,0,0,0,351,382a29.82,29.82,0,0,1-4.77-1.41s-1.94-.59-3.21-4.64c0,0-1.74-4.73-1.71-7.65a12.52,12.52,0,0,0,2,13.27s-4.3,1.27-6.09,0c0,0-5.36-.78-6.39-1.07,0,0-1.35-.33-.58.63a11,11,0,0,1,1.75,3.81,2.82,2.82,0,0,0,1.09,1.9s3.05,2.13,3.31,4.18c0,0,.66,2-.69,1.5,0,0-1.82-.85-2.47,0,0,0-.19.09.52.88a6.12,6.12,0,0,1,2,3.73,9.44,9.44,0,0,1-1,3.26,2.07,2.07,0,0,1-2.13.78,1.07,1.07,0,0,0-1-.09,8.64,8.64,0,0,1-2.33-.58s-2.55-.7-3.4-1a18,18,0,0,0-4.85-1.08,8.36,8.36,0,0,0-2.37.15A8.54,8.54,0,0,1,311.9,396s-2.06-1.64-2.76-.05c0,0-4.94,6.63-12.95,4.88,0,0,6.37-2.62,8-6.18,0,0,.22-3,3.56-7.23,0,0,1-1.4,0-1.76,0,0-.57-.42-1.81.82a21.92,21.92,0,0,0-4.31,5.82s-3.93,5.95-9.6,3.95c0,0,4.45-1.72,6.54-4.92a16.23,16.23,0,0,1,5.64-7.56s.17-4.87,2.2-7.61c0,0,1-4.57,1.31-5.64a37.54,37.54,0,0,0,1.08-5.13,14.54,14.54,0,0,1,3-9.33,28.48,28.48,0,0,1,5.8-7.41s2.69-3.32,4.68-5.35a47.59,47.59,0,0,1,8.35-7.09,36.74,36.74,0,0,0,4.49-3.91s10.09-7.27,17.39-1.44c0,0,5,3.43,9.24,4.49,0,0,8.64,1,12.33,7,0,0,.31,1.11,3.8,1.54,0,0,7.65-.93,13.29,6.6a14.11,14.11,0,0,0,7.8,3.18s8.45-.87,13.95,5.61c0,0,13.89,12.11,22.17,4.26,0,0,4.29-4.06-.62-11.42a51.67,51.67,0,0,0-8.41-7.67s-4.31-3-2.34-7.75c0,0,1-4.56,7.5-4.68,0,0,8.1-1.56,11.37-5.65,0,0,3.66,12.88-10.69,12.66,0,0-3.74.55-2.43,3.52a11,11,0,0,0,4.29,3.46s4.33,1.9,6.28,8.2c0,0,4.37,11-6.29,15.29-4.12,1.41-8.86,1-13.08.26Z" transform="translate(-87 -301.89)"/><path class="cls-3" d="M167,503.83h21.35s-.89-10.07-10.53-10.07S167,503.83,167,503.83Zm11.12-22.22c28.75,0,27.56,28,27.56,28v4.44h-39c0,6.37,5.33,11.85,12.6,11.85s11-7,11-7l13.78,6.82c-6.37,9.63-15,13.48-24.6,13.48-29.93,0-30.52-24.89-30.52-28s.44-29.63,29.19-29.63Zm64,41.93h0c-.89,0-12,.15-12-13.48S242.31,496,242.31,496s13.63.44,13.63,13.78-12.89,13.78-13.78,13.78Zm13.05-76.65V488s-8.31-6.37-17.79-6.37-25.49,6.66-25.49,27.71,13.63,29.05,25.34,29.05a25,25,0,0,0,18.23-7.71v6.84h16.89V446.89Zm114,37.53h17.19V514.8S387,525,396.58,525s9.49-10.23,9.49-10.23V484.57H423.4v31.27s2.23,24.45-26.38,24.45S369.17,518.8,369.17,515V484.42Zm64.24-37.53h17V537.5h-17V446.89Zm28.82,0H479V537.5H462.23V446.89ZM334.71,522.36H318.63V465.67h8.59s11.68-.88,11.68,9.31-9.29,9.29-9.29,9.29h-5.35v15.27h10.45c2.73,0,11.45,1.33,11.45,11.37s-11.45,11.45-11.45,11.45Zm14.45-32.16A23.3,23.3,0,0,0,357,472.52c0-11.58-8.41-22-26.32-22h-30v87h36.94s26.48-.3,26.48-24.23c0-13.89-5.39-19.21-15-23.07ZM87,448.64V537.5h17.93V465.6h8.45S126.57,465,126.57,477s-11.71,11.71-11.71,11.71h-4.3v20.45L128.5,537.5h21l-25-36.33s20.6-1.78,20.6-24.16-15.56-28.37-36.3-28.37Z" transform="translate(-87 -301.89)"/></svg>