<svg id="Layer_1" data-name="Layer 1" xmlns="http://www.w3.org/2000/svg" viewBox="0 0 417.03 100.36"><defs><style>.cls-1{fill:red;}</style></defs><title>brembo</title><path class="cls-1" d="M404,325.74c-3.81-.17-5.88-4.82-8.34-8.94l-8.75-14.32a21.6,21.6,0,0,0-4.6,13.33,21.91,21.91,0,0,0,43,5.67H410.69A7.18,7.18,0,0,1,404,325.74Zm.21-31.72a21.88,21.88,0,0,0-13.85,4.92l10.59,17.35h25.15c0-.16,0-.32,0-.48A21.85,21.85,0,0,0,404.16,294Zm-5.73,15a5.92,5.92,0,0,1,11.75,0Z" transform="translate(-186.87 -256.52)"/><path class="cls-1" d="M355.6,304.31v33h15.61v-9.21l-15.45-25.3A9.68,9.68,0,0,0,355.6,304.31Zm9.66-9.65a9.62,9.62,0,0,0-7,3l12.95,21.21v-7.22a3.63,3.63,0,0,1,3.63-3.62h7.42V294.66Z" transform="translate(-186.87 -256.52)"/><path class="cls-1" d="M429.84,336.49h15.37v-8.13l-15.37-25.15Zm49.15-43a13.94,13.94,0,0,0-11.89,6.71,13.91,13.91,0,0,0-21.89-2.48V294H429.84v0l15.37,25.15v-7.77a4.56,4.56,0,1,1,9.11,0v25.07H469.2V311.42a4.56,4.56,0,1,1,9.11,0v25.07H493v-29A14,14,0,0,0,479,293.5Z" transform="translate(-186.87 -256.52)"/><path class="cls-1" d="M237.05,256.52a50.09,50.09,0,0,0-30.67,10.56L226,299.15a13.34,13.34,0,1,1,10.58,21.44c-5.42,0-9.54-4-12.57-9L200.21,272.7a50.13,50.13,0,1,0,36.84-16.18Zm.23,87.62a37.46,37.46,0,0,1-37.56-37.36,37.08,37.08,0,0,1,1.73-11.21l13.28,21.75c7.21,11.68,15.84,14.14,21.82,14.14a24.23,24.23,0,1,0-7.07-47.41l-7.07-11.57a37.41,37.41,0,1,1,14.87,71.66Z" transform="translate(-186.87 -256.52)"/><path class="cls-1" d="M330.81,293.3a21.88,21.88,0,0,0-9.36,2.11V275.66H305.53V281l18,29.37a7.79,7.79,0,1,1-1.16,7.28l-16.79-27.48v47.55h15.92v-2.91a21.81,21.81,0,1,0,9.36-41.47Z" transform="translate(-186.87 -256.52)"/><path class="cls-1" d="M524,292.91a21.85,21.85,0,0,0-9.36,2.11V275.27H498.71v5.3L516.65,310a7.78,7.78,0,1,1-1.16,7.27l-16.78-27.48v47.55h15.92v-2.91A21.81,21.81,0,1,0,524,292.91Z" transform="translate(-186.87 -256.52)"/><path class="cls-1" d="M569.1,293.68a21.85,21.85,0,0,0-13.89,4.94l7.39,12.09a7.8,7.8,0,1,1-1.15,7.28l-9.68-15.82a21.61,21.61,0,0,0-4.58,13.3,21.91,21.91,0,1,0,21.91-21.79Z" transform="translate(-186.87 -256.52)"/><path class="cls-1" d="M595.18,328.29h2.93a4.61,4.61,0,0,1,1.59.18,1.83,1.83,0,0,1,1.12,1.77,1.74,1.74,0,0,1-1.05,1.69,2.26,2.26,0,0,1-.77.21v0a3.84,3.84,0,0,1,1.54,1.69l.84,1.36h-1.67l-1-1.51c-.84-1.25-.93-1.38-1.86-1.38h-.28v2.89h-1.39Zm1.39,2.93h1a5.19,5.19,0,0,0,1.26-.09.79.79,0,0,0,.53-.81.78.78,0,0,0-.36-.7c-.26-.16-.44-.16-1.38-.16h-1.08Z" transform="translate(-186.87 -256.52)"/><path class="cls-1" d="M597.87,338.12a6,6,0,1,1,6-6A6,6,0,0,1,597.87,338.12Zm0-11.06a5,5,0,1,0,5,5A5,5,0,0,0,597.87,327.06Z" transform="translate(-186.87 -256.52)"/></svg>