<svg id="Layer_1" data-name="Layer 1" xmlns="http://www.w3.org/2000/svg" viewBox="0 0 1156.35 209.25"><defs><style>.cls-1{fill:#004c6c;}.cls-2{fill:#ffb71b;}</style></defs><title>ElevateManagement_Logo</title><path class="cls-1" d="M1080.23,47.09h79.48a3.25,3.25,0,0,0,3.19-3.19V26h-82.67a41.67,41.67,0,0,0-41.71,41.7V168.52a41.67,41.67,0,0,0,41.71,41.71h82.67V192.32a3.25,3.25,0,0,0-3.19-3.19h-79.48a18.64,18.64,0,0,1-18.65-18.64v-42h89.55a3.25,3.25,0,0,0,3.19-3.19V107.44H1073.6c-5.15,0-9.56,2-12,4.9V65.73a18.64,18.64,0,0,1,18.65-18.64M867,26a3.25,3.25,0,0,0-3.19,3.19V47.09H918.8V210.23h19.87a3.09,3.09,0,0,0,3.19-3.19V47.09h52.5a3.25,3.25,0,0,0,3.2-3.19V26ZM724.74,138.6l30.67-88.32a4.7,4.7,0,0,1,4.41-3.19h12l31.89,91.51Zm63-110.9A3.41,3.41,0,0,0,784.85,26h-29.2a20.67,20.67,0,0,0-19.38,13.74l-59.86,170.5h20.12A4.81,4.81,0,0,0,701,207l16.43-47.35H811.1L827.54,207a4.55,4.55,0,0,0,4.41,3.19h20.12ZM584.41,179.07,532.16,28.93A4.91,4.91,0,0,0,528,26H506.64l63.79,181a4.74,4.74,0,0,0,4.17,3.19H594a4.74,4.74,0,0,0,4.17-3.19L661.94,26H640.59a5.26,5.26,0,0,0-4.17,2.94Zm-200.83-132h79.49a3.25,3.25,0,0,0,3.19-3.19V26H383.58a41.67,41.67,0,0,0-41.71,41.7V168.52a41.67,41.67,0,0,0,41.71,41.71h82.68V192.32a3.26,3.26,0,0,0-3.19-3.19H383.58a18.64,18.64,0,0,1-18.65-18.64v-42h89.55a3.25,3.25,0,0,0,3.19-3.19V107.44H377c-5.15,0-9.56,2-12,4.9V65.73a18.64,18.64,0,0,1,18.65-18.64M220.43,210.23h79.74V192.32a3.26,3.26,0,0,0-3.19-3.19H220.43A19.11,19.11,0,0,1,201.54,170V26H181.67a3.25,3.25,0,0,0-3.19,3.19V167.79c0,23.31,18.89,42.44,42,42.44M29.63,30.36A41.66,41.66,0,0,0,6.55,67.69V168.52a41.67,41.67,0,0,0,41.71,41.71h82.67V192.32a3.25,3.25,0,0,0-3.18-3.19H48.26a18.64,18.64,0,0,1-18.65-18.64v-42h89.55a3.25,3.25,0,0,0,3.19-3.19V107.44H41.63c-5.15,0-9.56,2-12,4.9V65.73c0-10.3,0-35.37,0-35.37" transform="translate(-6.55 -0.99)"/><path class="cls-2" d="M136.28,4.17A3.24,3.24,0,0,0,133.1,1H67.59v17.9a3.29,3.29,0,0,0,3.25,3.17h44.35V66.49a3.25,3.25,0,0,0,3.18,3.19h17.91Z" transform="translate(-6.55 -0.99)"/></svg>