<svg id="Layer_1" data-name="Layer 1" xmlns="http://www.w3.org/2000/svg" viewBox="0 0 650.35 339.78"><title>nike</title><path d="M208.5,348.73c-5.17,0-9.22,3.61-9.22,8.89s4.07,8.88,9.22,8.88,9.22-3.62,9.22-8.88S213.67,348.73,208.5,348.73Zm0,15.23a6.35,6.35,0,1,1,6.42-6.34A6.21,6.21,0,0,1,208.5,364Z" transform="translate(-99.49 -140.73)"/><polygon points="198.73 176.88 153.85 176.88 158.95 98.86 129.8 176.88 88.12 176.88 154.25 0.54 198.6 0.54 193.48 79.63 223.19 0.54 264.87 0.54 198.73 176.88"/><polygon points="204.15 176.88 270.28 0.54 311.96 0.54 245.83 176.88 204.15 176.88"/><path d="M182.8,256.82c-58.25,68.4-113.19,159.41-64.66,201.33,47,40.61,105.81,16.56,145.89.53S747.1,250.27,747.1,250.27c4.27-2.13,3.47-4.8-1.87-3.47C743.07,247.34,263,377.46,263,377.46,202,394.56,132.57,357.28,182.8,256.82Z" transform="translate(-99.49 -140.73)"/><path d="M210.07,358.25a2.23,2.23,0,0,0,2.31-2.52c0-2.31-1.51-2.89-4-2.89h-3.62v9.57h2.41v-4.08h.41l2.2,4.08h2.78Zm-1.55-1.55h-1.38v-2.22h1.17c.71,0,1.53.08,1.53,1S209.36,356.7,208.52,356.7Z" transform="translate(-99.49 -140.73)"/><path d="M627.5,140.73c-5.17,0-9.22,3.61-9.22,8.89s4.07,8.88,9.22,8.88,9.22-3.62,9.22-8.88S632.67,140.73,627.5,140.73Zm0,15.23a6.35,6.35,0,1,1,6.42-6.34A6.21,6.21,0,0,1,627.5,156Z" transform="translate(-99.49 -140.73)"/><path d="M629.07,150.25a2.23,2.23,0,0,0,2.31-2.52c0-2.31-1.51-2.89-4-2.89h-3.62v9.57h2.41v-4.08h.41l2.2,4.08h2.78Zm-1.55-1.55h-1.38v-2.22h1.17c.71,0,1.53.08,1.53,1S628.36,148.7,627.52,148.7Z" transform="translate(-99.49 -140.73)"/><path d="M600,170.65l11.2-29.39H484.06l-43.68,52.91,20.16-52.91H418.33l-65.6,176.35h41.68l28-73.75,1.91,73.75,127.9-.28,12.17-33.92H515.77l16-42.75h40.08l12.33-32.87H544.08l13.74-37.14ZM465.69,305.85,463,213.94l63-69.19Z" transform="translate(-99.49 -140.73)"/></svg>