<svg id="Vector_Logo" data-name="Vector Logo" xmlns="http://www.w3.org/2000/svg" viewBox="0 0 294.67 540.24"><defs><style>.cls-1{fill:#231f20;fill-rule:evenodd;}</style></defs><title>rolls-royce</title><path class="cls-1" d="M563.42,29.69a14.83,14.83,0,0,0-10.56-4.37H288a14.94,14.94,0,0,0-14.92,14.92V550.63A14.92,14.92,0,0,0,288,565.55H552.86a14.92,14.92,0,0,0,14.93-14.92V40.24a14.85,14.85,0,0,0-4.37-10.55Zm-5.08,522a5.49,5.49,0,0,1-5.48,5.48H288a5.48,5.48,0,0,1-5.47-5.48V468.3H558.34v83.42Zm0-94H282.56V128.4l275.78-.25v329.6Zm0-340.14H282.56V39.14A5.48,5.48,0,0,1,288,33.66H552.86a5.48,5.48,0,0,1,5.48,5.48v78.47Z" transform="translate(-273.11 -25.32)"/><path class="cls-1" d="M424.32,109.7a14.63,14.63,0,0,0,.94-4.84v-56a14.63,14.63,0,0,0-.94-4.84h8.5a14.59,14.59,0,0,0-.95,4.84V99.54c0,1.89,2,4.14,6.38,4.14s11.33,0,14.64-1.77l-4.84,7.79Z" transform="translate(-273.11 -25.32)"/><path class="cls-1" d="M469.41,109.7a14.63,14.63,0,0,0,.94-4.84v-56a14.63,14.63,0,0,0-.94-4.84h8.5a14.34,14.34,0,0,0-1,4.84V99.54c0,1.89,2,4.14,6.38,4.14s11.33,0,14.64-1.77l-4.84,7.79Z" transform="translate(-273.11 -25.32)"/><path class="cls-1" d="M537.63,57.17l3-7.44a25.33,25.33,0,0,1-5.19-1.65c-2.1-.88-5.91-2.48-9.57-2.48s-13.71,2.13-14.28,13c-.47,9,5.55,13.34,7.79,15.12,3.19,2.36,11.33,8.61,15,13.69s5.55,15.7-7.55,17.24c-4.49,0-9.45-2.25-12.16-4l1.06,9.21a14,14,0,0,1,5.43.24,45.53,45.53,0,0,0,7.32.71c2.6-.12,15.94-2.37,15.94-15.23,0-11.34-7.91-16.89-11.1-19.48C531,74.4,523.64,68,520.87,65.79c-2.13-1.66-5.55-13.34,5-13.58,5.32-.12,10,3.89,11.81,5Z" transform="translate(-273.11 -25.32)"/><path class="cls-1" d="M432.3,541.5a14.63,14.63,0,0,0,.94,4.84h-8.5a14.59,14.59,0,0,0,.95-4.84V511.39L408.22,480.7h7.67l13.34,23.49,13.34-23.49h7.67L432.3,512.1v29.4Z" transform="translate(-273.11 -25.32)"/><path class="cls-1" d="M538.7,504.66H527.13c-2,0-3.66-.82-3.66-3.42V490.85c0-1.89,2-4.13,6.38-4.13s8.26,0,11.57,1.77l-1.77-7.79H515.92a14.63,14.63,0,0,1,.94,4.84v56a14.63,14.63,0,0,1-.94,4.84h23.73l4.84-7.8c-3.31,1.78-10.27,1.78-14.64,1.78s-6.38-2.25-6.38-4.14V514.7c0-2.6,1.66-3.43,3.66-3.43H538.7v-6.61Z" transform="translate(-273.11 -25.32)"/><path class="cls-1" d="M501.31,492a28.27,28.27,0,0,0-17.77-5.75c-14.57,0-26.38,12.75-26.38,27.32s11.81,27.8,26.38,27.8c7.28,0,13.88-.83,18.65-5.61l.26,8.06c-5.34,3.79-11.87,3.89-18.91,3.89-18.08,0-32.73-16.07-32.73-34.14s14.65-33.67,32.73-33.67c6.48,0,11.81.94,16.89,4.19l.88,7.91Z" transform="translate(-273.11 -25.32)"/><path class="cls-1" d="M378,44.15A32.73,32.73,0,1,0,410.7,76.88,32.72,32.72,0,0,0,378,44.15Zm0,59.11a26.38,26.38,0,1,1,26.38-26.38A26.38,26.38,0,0,1,378,103.26Z" transform="translate(-273.11 -25.32)"/><path class="cls-1" d="M373.7,480.79a32.73,32.73,0,1,0,32.72,32.73,32.73,32.73,0,0,0-32.72-32.73Zm0,59.11a26.38,26.38,0,1,1,26.38-26.38A26.38,26.38,0,0,1,373.7,539.9Z" transform="translate(-273.11 -25.32)"/><path class="cls-1" d="M318.32,75.22c-.71-.82-.59-2.12.47-2.12h3.07a14.53,14.53,0,1,0,0-29H301a14.63,14.63,0,0,1,.94,4.84v56a14.63,14.63,0,0,1-.94,4.84h8.5a14.34,14.34,0,0,1-1-4.84V77.23c0-2.12,1.3-2,2.24-.83L339,109.7h8.62L318.32,75.22ZM308.5,66.4V50.56h13.34a7.93,7.93,0,1,1,0,15.86l-13.34,0Z" transform="translate(-273.11 -25.32)"/><path class="cls-1" d="M314.05,510.92c-.71-.83-.59-2.13.47-2.13h3.07a14.53,14.53,0,1,0,0-29.05h-20.9a14.34,14.34,0,0,1,.95,4.84v56a14.34,14.34,0,0,1-.95,4.84h8.5a14.63,14.63,0,0,1-.94-4.84V512.92c0-2.12,1.3-2,2.24-.82l28.22,33.29h8.62l-29.28-34.47Zm-9.83-8.83V486.25h13.34a7.93,7.93,0,0,1,0,15.86l-13.34,0Z" transform="translate(-273.11 -25.32)"/><path class="cls-1" d="M428.83,410.11h52.42c-8-4.25-10.86-15.59-11.33-26.45-5.2-49.11-32.59-87.36-39.2-97.28,31.11-18.67,44.86-47.26,44.86-73.67,0-43.92-38.72-64.69-72.25-64.69H315c3.31,4.72,5.67,6.61,5.67,17.47V389.33c0,10.86-4.72,16.05-8,20.78H352.8c-3.3-4.73-8-9.92-8-20.78V307.15c27.06-.43,49.66-4.9,67.79-12.11,27.61,29.59,30.91,72.56,31.38,84.37s-5.66,22.19-15.11,30.7ZM344.77,286.85V163.6h52c35.89,0,47.7,22.67,47.22,46.75-2.36,66.59-68.47,76.5-99.17,76.5Z" transform="translate(-273.11 -25.32)"/><path class="cls-1" d="M392,333.12a238.09,238.09,0,0,0,35-3c-1.43-4.8-6.63-15.19-9.23-19.48A155.93,155.93,0,0,1,392,312.82v-5.2c-3.31,1.18-17.94,3.31-24.08,4V415.29c0,10.86-4.73,16.06-8,20.78H400c-3.31-4.72-8-9.92-8-20.78V333.12Z" transform="translate(-273.11 -25.32)"/><path class="cls-1" d="M434.51,188.84H392v84.53c-5.43,1.89-16.29,5.43-24.08,6.13V190.73c0-10.87-2.36-12.75-5.67-17.48h58.8c4.72,2.84,11.09,9.68,13.46,15.59Z" transform="translate(-273.11 -25.32)"/><path class="cls-1" d="M481.92,203.9c7.17,8.64,9.94,20.19,9.7,32.09-1.28,36.07-21.27,55.51-44.2,65.75,3.36,5.08,7.58,14.69,10.19,19.92.64-.25,2.7-1,3.33-1.22,27.61,29.59,30.21,72.8,30.68,84.6s-5.66,22.2-15.11,30.7h52.42c-8-4.25-10.86-15.58-11.33-26.45C512.4,360.18,485,321.93,478.4,312c31.11-18.66,44.86-47.26,44.86-73.66,0-34.66-24.82-55.14-51.46-62.14a92.44,92.44,0,0,1,10.12,27.69Z" transform="translate(-273.11 -25.32)"/></svg>